<svg width="390" height="844" viewBox="0 0 390 844" fill="none" xmlns="http://www.w3.org/2000/svg">
<g clip-path="url(#clip0_128_114)">
<rect width="390" height="844" rx="43" fill="#1C1B1B"/>
<path fill-rule="evenodd" clip-rule="evenodd" d="M380.709 -188.882C370.64 -173.797 358.501 -153.494 357.476 -133.034C357.155 -126.631 357.922 -120.212 360.181 -113.932C360.056 -109.122 360.561 -104.309 361.867 -99.5587C361.831 -99.078 361.801 -98.5972 361.777 -98.1162C361.594 -94.4727 361.764 -90.8237 362.36 -87.198C362.103 -85.3875 361.925 -83.5723 361.834 -81.7558C361.806 -81.1941 361.786 -80.6322 361.775 -80.0704C352.696 -65.8023 343.299 -48.0295 342.403 -30.1355C341.889 -19.8956 344.159 -9.6121 350.864 0.0732928C357.566 9.7563 368.687 18.8217 385.841 26.6501C425.797 44.8848 458.504 39.6382 483.654 35.6037C485.989 35.2291 488.259 34.8649 490.464 34.531C503.46 32.5626 514.105 31.6599 522.475 35.7429C530.821 39.8148 536.991 48.8967 540.872 67.1382L541.452 67.0359C537.561 48.7464 531.339 39.4481 522.746 35.2556C514.175 31.0744 503.332 32.0233 490.364 33.9874C488.16 34.3212 485.893 34.6848 483.562 35.0585L483.556 35.0595L483.552 35.0601C458.408 39.0923 425.875 44.3093 386.097 26.156C369.014 18.36 357.989 9.3549 351.36 -0.222025C344.732 -9.79657 342.485 -19.9624 342.993 -30.1048C343.866 -47.524 352.865 -64.8621 361.764 -78.9652C361.764 -78.6362 361.768 -78.3073 361.774 -77.9784C361.611 -77.2844 361.459 -76.5891 361.317 -75.8927C355.583 -64.8612 351.004 -52.6947 350.392 -40.4717C349.879 -30.2319 352.148 -19.9483 358.853 -10.263C365.555 -0.579944 376.676 8.48544 393.83 16.3139C433.787 34.5486 466.493 29.3019 491.643 25.2675C493.978 24.8929 496.248 24.5287 498.453 24.1947C511.449 22.2263 522.094 21.3236 530.464 25.4067C538.81 29.4785 544.981 38.5605 548.861 56.8019L549.441 56.6997C545.551 38.4101 539.328 29.1119 530.735 24.9194C522.164 20.7381 511.321 21.687 498.353 23.6512C496.146 23.9854 493.876 24.3496 491.541 24.7239C466.397 28.756 433.864 33.973 394.086 15.8198C377.003 8.02376 365.978 -0.981339 359.349 -10.5583C352.722 -20.1328 350.474 -30.2987 350.983 -40.4411C351.557 -51.9049 355.651 -63.3337 360.92 -73.8284C358.405 -66.9259 356.686 -59.7875 356.328 -52.6297C355.815 -42.3898 358.085 -32.1063 364.789 -22.4209C371.491 -12.7379 382.612 -3.67254 399.766 4.15587C439.723 22.3906 472.429 17.1439 497.579 13.1095L497.584 13.1088L497.595 13.1068L497.603 13.1056L497.607 13.1049L497.622 13.1026C499.942 12.7305 502.198 12.3687 504.389 12.0367C517.385 10.0683 528.03 9.16566 536.4 13.2487C544.747 17.3206 550.917 26.4025 554.797 44.6439L555.377 44.5417C551.487 26.2521 545.265 16.9539 536.671 12.7614C528.1 8.58014 517.257 9.52904 504.289 11.4932C502.082 11.8275 499.812 12.1916 497.477 12.5659L497.477 12.5659C472.333 16.5981 439.8 21.815 400.023 3.66183C382.94 -4.13421 371.914 -13.1393 365.285 -22.7162C358.658 -32.2908 356.41 -42.4567 356.919 -52.599C357.224 -58.7005 358.527 -64.792 360.473 -70.738C360.3 -69.3224 360.175 -67.9044 360.104 -66.4856C359.591 -56.2458 361.861 -45.9622 368.565 -36.2768C375.268 -26.5938 386.388 -17.5284 403.542 -9.70004C443.499 8.53468 476.205 3.28802 501.355 -0.74642L501.358 -0.746843C503.692 -1.12132 505.962 -1.48534 508.166 -1.81916C521.161 -3.78758 531.807 -4.69027 540.176 -0.607227C548.523 3.46464 554.693 12.5466 558.573 30.788L559.154 30.6858C555.263 12.3962 549.041 3.09795 540.447 -1.09449C531.876 -5.27577 521.033 -4.32687 508.065 -2.36272C505.859 -2.02846 503.588 -1.66434 501.254 -1.29001C476.109 2.74214 443.577 7.9591 403.799 -10.1941C386.716 -17.9901 375.691 -26.9952 369.061 -36.5722C362.434 -46.1467 360.187 -56.3126 360.695 -66.455C360.817 -68.888 361.097 -71.3194 361.514 -73.7407C361.65 -74.1124 361.788 -74.4835 361.928 -74.8538C362.565 -66.9247 365.097 -59.0561 370.295 -51.547C376.997 -41.864 388.118 -32.7986 405.272 -24.9702C445.229 -6.73547 477.935 -11.9821 503.085 -16.0166L503.088 -16.017C505.422 -16.3915 507.691 -16.7555 509.895 -17.0893C522.891 -19.0577 533.537 -19.9604 541.906 -15.8774C550.253 -11.8055 556.423 -2.72357 560.303 15.5179L560.883 15.4156C556.993 -2.87393 550.771 -12.1722 542.177 -16.3646C533.606 -20.5459 522.763 -19.597 509.795 -17.6329C507.594 -17.2995 505.33 -16.9364 503.002 -16.5632L502.994 -16.5618L502.99 -16.5613L502.983 -16.5602C477.839 -12.528 445.307 -7.31104 405.529 -25.4642C388.446 -33.2603 377.42 -42.2654 370.791 -51.8423C365.377 -59.6643 362.886 -67.8809 362.433 -76.157C362.763 -76.9942 363.105 -77.8276 363.456 -78.6568C363.69 -79.0841 363.926 -79.5096 364.162 -79.933C365.533 -75.8548 367.521 -71.832 370.238 -67.9075C376.94 -58.2245 388.061 -49.1591 405.215 -41.3307C445.172 -23.096 477.878 -28.3426 503.028 -32.377L503.035 -32.3782C505.368 -32.7524 507.636 -33.1162 509.838 -33.4498C522.834 -35.4182 533.479 -36.3209 541.849 -32.2379C550.196 -28.166 556.366 -19.0841 560.246 -0.842599L560.826 -0.944863C556.936 -19.2344 550.714 -28.5327 542.12 -32.7251C533.549 -36.9064 522.706 -35.9575 509.738 -33.9934C507.533 -33.6594 505.264 -33.2956 502.932 -32.9215L502.928 -32.9209L502.926 -32.9206C477.782 -28.8885 445.249 -23.6715 405.472 -41.8247C388.389 -49.6208 377.363 -58.6259 370.734 -68.2028C367.93 -72.2533 365.911 -76.4097 364.552 -80.6254C365.642 -82.5556 366.757 -84.444 367.88 -86.2842C368.144 -85.8797 368.415 -85.4761 368.693 -85.0736C375.396 -75.3906 386.517 -66.3252 403.671 -58.4968C443.627 -40.2621 476.334 -45.5088 501.483 -49.5432L501.485 -49.5435C503.82 -49.918 506.09 -50.2821 508.294 -50.6159C521.289 -52.5843 531.935 -53.487 540.304 -49.404C548.651 -45.3321 554.821 -36.2502 558.702 -18.0087L559.282 -18.111C555.391 -36.4005 549.169 -45.6988 540.575 -49.8913C532.004 -54.0725 521.161 -53.1236 508.194 -51.1595C505.989 -50.8255 503.72 -50.4617 501.388 -50.0877L501.383 -50.087L501.382 -50.0868C476.238 -46.0546 443.705 -40.8377 403.927 -58.9909C386.844 -66.7869 375.819 -75.792 369.19 -85.3689C368.853 -85.8546 368.528 -86.3418 368.215 -86.8305C369.836 -89.4713 371.471 -92.0105 373.067 -94.4286C379.729 -87.8984 388.823 -81.7659 400.914 -76.248C440.871 -58.0133 473.577 -63.2599 498.727 -67.2944C501.062 -67.669 503.332 -68.0332 505.537 -68.3671C518.533 -70.3355 529.178 -71.2382 537.548 -67.1552C545.895 -63.0833 552.065 -54.0014 555.945 -35.7599L556.525 -35.8622C552.635 -54.1517 546.413 -63.45 537.819 -67.6424C529.248 -71.8237 518.405 -70.8748 505.437 -68.9106C503.23 -68.5764 500.96 -68.2123 498.625 -67.8379C473.481 -63.8058 440.948 -58.5888 401.171 -76.742C389.064 -82.267 380 -88.3991 373.387 -94.9117C373.635 -95.2864 373.882 -95.6581 374.128 -96.0268L373.625 -96.3205C373.406 -95.9927 373.187 -95.6625 372.966 -95.3299C372.753 -95.5442 372.542 -95.7588 372.333 -95.9739C374.899 -100.312 377.544 -104.408 380.065 -108.185L379.561 -108.478C377.072 -104.749 374.457 -100.701 371.914 -96.4111C371.244 -97.1162 370.601 -97.8256 369.986 -98.5388C374.184 -107.125 379.221 -115.12 383.841 -122.041L383.338 -122.334C378.764 -115.483 373.764 -107.555 369.572 -99.0245C368.607 -100.168 367.711 -101.322 366.881 -102.484C371.521 -115.347 378.972 -127.425 385.571 -137.311L385.067 -137.605C378.54 -127.826 371.144 -115.855 366.468 -103.07L366.433 -103.12C365.391 -104.626 364.457 -106.146 363.625 -107.679C367.145 -124.641 377.033 -140.966 385.514 -153.671L385.01 -153.965C376.649 -141.439 366.861 -125.316 363.194 -108.492C362.249 -110.316 361.446 -112.157 360.775 -114.011C360.786 -114.424 360.802 -114.838 360.823 -115.252C361.84 -135.555 373.898 -155.749 383.969 -170.837L383.466 -171.131C373.441 -156.113 361.365 -135.924 360.247 -115.555C358.396 -121.3 357.774 -127.156 358.067 -133.003C359.084 -153.306 371.141 -173.5 381.213 -188.589L380.709 -188.882ZM363.235 -81.2693C362.92 -80.1567 362.63 -79.04 362.366 -77.92L362.367 -77.8777C362.55 -78.2166 362.733 -78.5543 362.918 -78.8909C363.214 -79.5888 363.517 -80.2837 363.826 -80.9753C363.741 -81.2503 363.658 -81.5256 363.579 -81.8011C363.464 -81.6244 363.349 -81.4471 363.235 -81.2693ZM364.004 -82.4552C364.065 -82.233 364.129 -82.0109 364.194 -81.7891C364.715 -82.9329 365.254 -84.0674 365.807 -85.1915C365.211 -84.2965 364.609 -83.3841 364.004 -82.4552ZM366.073 -85.7294C366.389 -86.366 366.71 -86.9991 367.035 -87.6286C366.669 -88.2312 366.319 -88.8357 365.985 -89.4423C365.19 -87.3924 364.462 -85.3201 363.816 -83.2312C364.428 -84.1667 365.036 -85.0847 365.636 -85.9842L366.073 -85.7294ZM362.685 -81.4906C362.848 -82.0664 363.018 -82.6411 363.194 -83.2145C363.018 -83.9054 362.858 -84.5976 362.714 -85.2908C362.582 -84.1033 362.484 -82.9144 362.425 -81.7251C362.413 -81.4967 362.403 -81.2683 362.395 -81.0399C362.491 -81.1905 362.588 -81.3408 362.685 -81.4906ZM367.53 -86.8296C367.053 -86.0509 366.578 -85.2633 366.105 -84.4673C366.526 -85.3331 366.956 -86.193 367.394 -87.0464C367.439 -86.9741 367.484 -86.9018 367.53 -86.8296ZM372.646 -94.8458C371.076 -92.4706 369.467 -89.9755 367.867 -87.3789C367.812 -87.4677 367.757 -87.5565 367.702 -87.6454C369.09 -90.3223 370.547 -92.934 372.033 -95.4653C372.235 -95.2584 372.439 -95.0519 372.646 -94.8458ZM371.612 -95.9012C370.954 -96.5898 370.321 -97.2827 369.714 -97.9794C368.476 -95.4164 367.314 -92.8018 366.262 -90.1484C366.606 -89.5072 366.968 -88.8682 367.347 -88.2314C368.717 -90.8577 370.151 -93.4191 371.612 -95.9012ZM365.619 -90.1203C364.863 -88.199 364.164 -86.257 363.535 -84.2993C363.311 -85.2637 363.119 -86.2305 362.958 -87.1991C363.247 -89.2211 363.635 -91.2376 364.109 -93.2435C364.568 -92.1975 365.071 -91.1562 365.619 -90.1203ZM369.297 -98.4632C368.085 -95.9661 366.943 -93.4186 365.903 -90.8324C365.329 -91.9455 364.809 -93.0646 364.339 -94.1891C364.98 -96.7566 365.758 -99.3055 366.646 -101.825C367.467 -100.695 368.35 -99.5744 369.297 -98.4632ZM366.228 -102.408C366.13 -102.547 366.033 -102.686 365.937 -102.825C365.027 -104.139 364.199 -105.465 363.448 -106.8C362.984 -104.41 362.649 -102.009 362.464 -99.6042C362.881 -98.099 363.38 -96.6004 363.965 -95.1105C364.605 -97.5647 365.368 -100 366.228 -102.408ZM363.721 -94.1524C363.207 -95.3943 362.754 -96.6424 362.358 -97.8954C362.222 -94.9852 362.314 -92.0734 362.672 -89.1745C362.961 -90.8399 363.313 -92.5001 363.721 -94.1524ZM363.006 -107.603C362.578 -105.515 362.247 -103.417 362.026 -101.314C361.158 -104.992 360.761 -108.704 360.754 -112.422C361.401 -110.804 362.149 -109.197 363.006 -107.603ZM332.684 -21.5154C333.709 -41.9763 345.848 -62.2787 355.917 -77.3641L356.42 -77.0704C346.349 -61.9817 334.292 -41.7882 333.274 -21.4847C332.766 -11.3424 335.013 -1.1765 341.641 8.39805C348.27 17.975 359.295 26.9801 376.378 34.7761C416.156 52.9293 448.689 47.7124 473.833 43.6802C476.168 43.3059 478.438 42.9418 480.645 42.6075C493.613 40.6433 504.456 39.6944 513.027 43.8757C521.62 48.0682 527.843 57.3664 531.733 75.656L531.153 75.7582C527.273 57.5168 521.102 48.4349 512.756 44.363C504.386 40.2799 493.741 41.1826 480.745 43.151C478.54 43.485 476.27 43.8492 473.935 44.2238C448.785 48.2582 416.079 53.5049 376.122 35.2702C358.968 27.4418 347.847 18.3764 341.145 8.69336C334.44 -0.992031 332.17 -11.2755 332.684 -21.5154ZM344.898 -70.1606C334.828 -55.0751 322.689 -34.7728 321.664 -14.3118C321.151 -4.07199 323.421 6.21153 330.125 15.8969C336.828 25.5799 347.948 34.6453 365.102 42.4737C405.059 60.7084 437.765 55.4618 462.915 51.4274C465.251 51.0527 467.521 50.6886 469.726 50.3546C482.721 48.3862 493.367 47.4835 501.736 51.5665C510.083 55.6384 516.253 64.7203 520.133 82.9618L520.714 82.8595C516.823 64.57 510.601 55.2717 502.007 51.0793C493.436 46.898 482.593 47.8469 469.625 49.811C467.419 50.1452 465.149 50.5093 462.815 50.8835L462.814 50.8838C437.669 54.9159 405.137 60.1329 365.359 41.9797C348.276 34.1836 337.251 25.1785 330.621 15.6016C323.994 6.02705 321.747 -4.13882 322.255 -14.2812C323.272 -34.5847 335.329 -54.7781 345.401 -69.8669L344.898 -70.1606ZM309.762 -8.13682C310.787 -28.5977 322.926 -48.9001 332.996 -63.9856L333.499 -63.6919C323.427 -48.6031 311.37 -28.4097 310.353 -8.10617C309.845 2.0362 312.092 12.2021 318.719 21.7766C325.349 31.3535 336.374 40.3587 353.457 48.1547C393.235 66.3079 425.767 61.0909 450.912 57.0588L450.916 57.0581L450.922 57.0572C453.253 56.6834 455.52 56.3198 457.724 55.9861C470.691 54.0219 481.534 53.073 490.105 57.2543C498.699 61.4467 504.921 70.745 508.812 89.0346L508.231 89.1368C504.351 70.8953 498.181 61.8134 489.834 57.7416C481.465 53.6585 470.819 54.5612 457.824 56.5296C455.632 56.8615 453.376 57.2233 451.056 57.5955L451.042 57.5978L451.037 57.5985L451.03 57.5997L451.018 57.6016L451.013 57.6024C425.864 61.6368 393.157 66.8835 353.2 48.6487C336.047 40.8203 324.926 31.755 318.223 22.0719C311.519 12.3865 309.249 2.10303 309.762 -8.13682ZM320.568 -58.4547C310.499 -43.3692 298.36 -23.0669 297.335 -2.60597C296.821 7.63387 299.091 17.9174 305.796 27.6028C312.498 37.2858 323.619 46.3512 340.773 54.1796C380.729 72.4143 413.436 67.1676 438.586 63.1332C440.921 62.7586 443.191 62.3944 445.396 62.0605C458.392 60.092 469.037 59.1894 477.407 63.2724C485.753 67.3443 491.924 76.4262 495.804 94.6676L496.384 94.5654C492.493 76.2758 486.271 66.9776 477.678 62.7851C469.107 58.6038 458.264 59.5528 445.296 61.5169C443.089 61.8512 440.818 62.2153 438.484 62.5896C413.34 66.6218 380.807 71.8387 341.029 53.6855C323.946 45.8895 312.921 36.8844 306.292 27.3075C299.664 17.7329 297.417 7.56705 297.925 -2.57533C298.943 -22.8788 311 -43.0723 321.071 -58.161L320.568 -58.4547ZM284.655 2.6088C285.68 -17.8521 297.82 -38.1545 307.889 -53.24L308.392 -52.9463C298.32 -37.8575 286.263 -17.6641 285.246 2.63944C284.738 12.7818 286.985 22.9477 293.613 32.5222C300.242 42.0992 311.267 51.1043 328.35 58.9003C368.128 77.0535 400.661 71.8365 425.805 67.8044L425.809 67.8037L425.815 67.8028C428.146 67.429 430.413 67.0654 432.617 66.7317C445.584 64.7675 456.427 63.8186 464.998 67.9999C473.592 72.1923 479.814 81.4906 483.705 99.7802L483.124 99.8824C479.244 81.641 473.074 72.559 464.727 68.4872C456.358 64.4041 445.712 65.3068 432.717 67.2752C430.514 67.6088 428.246 67.9726 425.914 68.3468L425.906 68.348C400.757 72.3824 368.05 77.6291 328.093 59.3943C310.94 51.5659 299.819 42.5006 293.116 32.8175C286.412 23.1322 284.142 12.8486 284.655 2.6088ZM295.169 -48.0788C285.1 -32.9933 272.961 -12.6909 271.936 7.76998C271.423 18.0098 273.693 28.2933 280.397 37.9787C287.099 47.6617 298.22 56.7271 315.374 64.5555C355.331 82.7903 388.037 77.5436 413.187 73.5092L413.191 73.5085C415.525 73.1341 417.794 72.7702 419.997 72.4364C432.993 70.468 443.638 69.5653 452.008 73.6484C460.355 77.7202 466.525 86.8022 470.405 105.044L470.985 104.941C467.095 86.6518 460.873 77.3535 452.279 73.1611C443.708 68.9798 432.865 69.9287 419.897 71.8929C417.693 72.2267 415.425 72.5903 413.094 72.9642L413.089 72.9649L413.085 72.9656C387.941 76.9977 355.409 82.2147 315.631 64.0615C298.548 56.2655 287.522 47.2603 280.893 37.6834C274.266 28.1089 272.018 17.943 272.527 7.80063C273.544 -12.5029 285.601 -32.6963 295.673 -47.7851L295.169 -48.0788ZM259.328 13.0761C260.353 -7.3848 272.492 -27.6871 282.562 -42.7726L283.065 -42.4789C272.993 -27.3902 260.936 -7.19673 259.919 13.1068C259.411 23.2491 261.658 33.415 268.285 42.9896C274.914 52.5665 285.94 61.5716 303.023 69.3676C342.801 87.5208 375.333 82.3039 400.478 78.2717L400.483 78.2708C402.815 77.8968 405.084 77.533 407.289 77.199C420.257 75.2349 431.1 74.286 439.671 78.4672C448.265 82.6597 454.487 91.9579 458.377 110.248L457.797 110.35C453.917 92.1083 447.747 83.0264 439.4 78.9545C431.031 74.8715 420.385 75.7742 407.389 77.7426C405.186 78.0763 402.917 78.4403 400.583 78.8147L400.582 78.8148L400.579 78.8153C375.429 82.8497 342.723 88.0964 302.766 69.8617C285.612 62.0333 274.491 52.9679 267.789 43.2849C261.085 33.5995 258.815 23.316 259.328 13.0761ZM270.185 -37.1777C260.116 -22.0922 247.977 -1.78984 246.952 18.6711C246.438 28.9109 248.708 39.1945 255.413 48.8798C262.115 58.5629 273.236 67.6282 290.39 75.4567C330.346 93.6914 363.053 88.4447 388.203 84.4103C390.538 84.0357 392.808 83.6715 395.013 83.3375C408.009 81.3691 418.654 80.4664 427.024 84.5495C435.37 88.6213 441.541 97.7032 445.421 115.945L446.001 115.842C442.11 97.5529 435.888 88.2546 427.295 84.0622C418.724 79.8809 407.881 80.8298 394.913 82.794C392.706 83.1282 390.435 83.4924 388.101 83.8667C362.957 87.8988 330.424 93.1158 290.646 74.9626C273.563 67.1666 262.538 58.1614 255.909 48.5845C249.281 39.01 247.034 28.8441 247.542 18.7017C248.56 -1.60177 260.617 -21.7952 270.688 -36.884L270.185 -37.1777ZM234.892 24.6541C235.917 4.19317 248.056 -16.1092 258.126 -31.1947L258.629 -30.901C248.557 -15.8122 236.5 4.38123 235.483 24.6847C234.975 34.8271 237.222 44.993 243.849 54.5675C250.478 64.1445 261.504 73.1496 278.587 80.9456C318.365 99.0988 350.897 93.8818 376.042 89.8497L376.047 89.8488C378.379 89.4748 380.648 89.111 382.853 88.777C395.821 86.8128 406.664 85.8639 415.235 90.0452C423.829 94.2376 430.051 103.536 433.941 121.825L433.361 121.928C429.481 103.686 423.311 94.6043 414.964 90.5325C406.595 86.4494 395.949 87.3521 382.953 89.3205C380.755 89.6535 378.492 90.0165 376.164 90.3899L376.149 90.3923L376.143 90.3933C350.993 94.4277 318.287 99.6744 278.33 81.4396C261.176 73.6112 250.055 64.5459 243.353 54.8628C236.649 45.1775 234.379 34.8939 234.892 24.6541ZM246.442 -24.7582C236.373 -9.67274 224.234 10.6296 223.209 31.0905C222.696 41.3304 224.966 51.6139 231.67 61.2993C238.372 70.9823 249.493 80.0477 266.647 87.8761C306.604 106.111 339.31 100.864 364.46 96.8297L364.461 96.8295C366.796 96.455 369.066 96.0909 371.27 95.757C384.266 93.7886 394.912 92.8859 403.281 96.9689C411.628 101.041 417.798 110.123 421.678 128.364L422.258 128.262C418.368 109.972 412.146 100.674 403.552 96.4816C394.981 92.3004 384.138 93.2493 371.17 95.2134C368.964 95.5476 366.693 95.9117 364.359 96.286L364.358 96.2861C339.214 100.318 306.682 105.535 266.904 87.382C249.821 79.586 238.795 70.5809 232.166 61.004C225.539 51.4294 223.292 41.2636 223.8 31.1212C224.817 10.8177 236.874 -9.37575 246.946 -24.4645L246.442 -24.7582Z" fill="url(#paint0_radial_128_114)" fill-opacity="0.58"/>
<path fill-rule="evenodd" clip-rule="evenodd" d="M648.356 796.374C631.353 780.094 608.165 760.005 582.271 754.074C574.165 752.218 565.793 751.748 557.263 753.216C551.142 751.968 544.875 751.525 538.507 752.121C537.898 751.965 537.287 751.817 536.674 751.677C532.061 750.62 527.36 750.013 522.594 749.956C520.337 749.217 518.055 748.578 515.753 748.051C515.035 747.886 514.315 747.733 513.594 747.591C497.412 732.76 476.83 716.735 454.176 711.547C441.22 708.579 427.582 709.155 413.707 715.524C399.834 721.893 385.746 734.043 371.869 754.186C339.548 801.104 338.859 844.062 338.328 877.115C338.279 880.184 338.231 883.167 338.159 886.061C337.737 903.11 336.485 916.949 329.355 926.749C322.24 936.529 309.206 942.363 285.009 943.198L285.008 943.787C309.254 942.95 322.511 937.103 329.788 927.101C337.05 917.12 338.29 903.078 338.712 886.057C338.784 883.161 338.832 880.177 338.881 877.109C339.413 844.063 340.101 801.281 372.311 754.525C386.143 734.446 400.156 722.379 413.911 716.065C427.664 709.751 441.182 709.177 454.043 712.123C476.231 717.205 496.454 732.76 512.505 747.385C511.982 747.29 511.459 747.202 510.934 747.119C510.079 746.752 509.219 746.398 508.356 746.057C495.558 736.237 481.052 727.638 465.579 724.094C452.623 721.126 438.985 721.702 425.11 728.072C411.237 734.44 397.149 746.59 383.272 766.733C350.951 813.651 350.262 856.609 349.731 889.662L349.731 889.664C349.682 892.732 349.634 895.715 349.563 898.608C349.14 915.657 347.889 929.496 340.759 939.296C333.644 949.076 320.609 954.91 296.412 955.745L296.411 956.334C320.658 955.497 333.914 949.65 341.191 939.648C348.453 929.667 349.694 915.625 350.115 898.604C350.187 895.712 350.235 892.731 350.284 889.667L350.284 889.657C350.816 856.61 351.504 813.828 383.714 767.072C397.546 746.993 411.559 734.926 425.314 728.612C439.067 722.298 452.585 721.724 465.446 724.67C480.183 728.046 494.053 736.041 506.41 745.315C506.232 745.25 506.053 745.185 505.875 745.12C497.608 740.331 488.858 736.509 479.775 734.428C466.819 731.461 453.181 732.036 439.306 738.406C425.433 744.775 411.344 756.925 397.468 777.068C365.147 823.986 364.458 866.944 363.927 899.997C363.878 903.066 363.83 906.049 363.758 908.943C363.336 925.992 362.084 939.831 354.954 949.631C347.839 959.411 334.805 965.245 310.607 966.08L310.607 966.669C334.853 965.832 348.11 959.984 355.387 949.983C362.649 940.001 363.889 925.96 364.311 908.939C364.383 906.043 364.431 903.059 364.48 899.991C365.012 866.945 365.7 824.162 397.91 777.407C411.742 757.328 425.754 745.261 439.51 738.946C453.263 732.633 466.781 732.059 479.642 735.005C487.668 736.843 495.437 740.052 502.844 744.091C500.791 743.437 498.719 742.866 496.629 742.388C483.673 739.42 470.035 739.996 456.16 746.366C442.287 752.734 428.198 764.884 414.322 785.027C382.001 831.945 381.312 874.903 380.781 907.956C380.732 911.025 380.684 914.009 380.612 916.902C380.19 933.951 378.938 947.79 371.808 957.59C364.693 967.37 351.659 973.204 327.462 974.039L327.461 974.628C351.707 973.791 364.964 967.944 372.241 957.942C379.503 947.961 380.743 933.919 381.165 916.898C381.237 914.003 381.285 911.019 381.334 907.951C381.866 874.904 382.554 832.122 414.764 785.366C428.596 765.287 442.608 753.22 456.364 746.906C470.117 740.592 483.635 740.018 496.496 742.964C499.584 743.672 502.633 744.582 505.639 745.664C506.199 745.988 506.757 746.318 507.312 746.651C496.926 745.598 486.178 747.027 475.284 752.028C461.411 758.397 447.322 770.547 433.446 790.69C401.125 837.608 400.436 880.566 399.905 913.619C399.856 916.688 399.808 919.672 399.736 922.565C399.314 939.614 398.062 953.453 390.932 963.253C383.817 973.033 370.783 978.867 346.585 979.702L346.585 980.291C370.831 979.454 384.088 973.607 391.365 963.605C398.627 953.624 399.867 939.582 400.289 922.561C400.36 919.695 400.408 916.742 400.457 913.707L400.457 913.682L400.457 913.671L400.457 913.664L400.458 913.644L400.458 913.638L400.458 913.619L400.458 913.613C400.99 880.567 401.678 837.785 433.888 791.029C447.72 770.95 461.732 758.883 475.488 752.569C486.729 747.408 497.814 746.082 508.511 747.379C509.512 747.994 510.506 748.622 511.491 749.263C512.039 749.702 512.584 750.144 513.125 750.586C507.545 751.405 501.895 753.043 496.205 755.655C482.332 762.023 468.244 774.173 454.367 794.317C422.046 841.234 421.357 884.192 420.827 917.245L420.827 917.247C420.777 920.315 420.729 923.298 420.658 926.191C420.235 943.24 418.984 957.08 411.854 966.88C404.739 976.659 391.704 982.493 367.507 983.328L367.507 983.917C391.753 983.08 405.01 977.233 412.286 967.231C419.548 957.25 420.789 943.208 421.21 926.187C421.282 923.298 421.33 920.321 421.379 917.26L421.379 917.26L421.38 917.241L421.38 917.24C421.911 884.193 422.6 841.411 454.809 794.655C468.641 774.576 482.654 762.51 496.409 756.195C502.239 753.519 508.026 751.874 513.739 751.091C516.007 752.96 518.213 754.852 520.353 756.741C519.733 757.003 519.113 757.277 518.492 757.562C504.62 763.93 490.531 776.08 476.655 796.223C444.334 843.141 443.644 886.099 443.114 919.152C443.065 922.221 443.017 925.205 442.945 928.098C442.523 945.147 441.271 958.986 434.141 968.786C427.026 978.566 413.991 984.4 389.794 985.235L389.794 985.824C414.04 984.987 427.297 979.14 434.574 969.138C441.836 959.157 443.076 945.115 443.498 928.094C443.57 925.199 443.618 922.215 443.667 919.147C444.199 886.1 444.887 843.318 477.097 796.562C490.929 776.483 504.941 764.416 518.697 758.102C519.409 757.775 520.121 757.463 520.833 757.166C523.884 759.873 526.799 762.573 529.563 765.194C519.691 772.227 509.775 782.473 499.964 796.714C467.643 843.631 466.953 886.59 466.423 919.642C466.374 922.712 466.326 925.695 466.254 928.589C465.832 945.638 464.58 959.477 457.45 969.277C450.335 979.056 437.3 984.89 413.103 985.726L413.103 986.315C437.349 985.478 450.606 979.63 457.883 969.629C465.145 959.647 466.385 945.606 466.807 928.585C466.879 925.689 466.927 922.705 466.976 919.637C467.508 886.59 468.196 843.808 500.406 797.053C510.226 782.797 520.137 772.58 529.983 765.593C530.422 766.01 530.856 766.425 531.287 766.838L531.664 766.393C531.269 766.015 530.87 765.634 530.468 765.252C530.838 764.993 531.208 764.739 531.577 764.49C536.56 768.763 541.213 773.085 545.483 777.172L545.86 776.728C541.631 772.68 537.021 768.396 532.081 764.152C533.183 763.42 534.284 762.728 535.384 762.075C545.431 769.393 554.526 777.653 562.337 785.132L562.714 784.687C554.963 777.266 545.927 769.053 535.935 761.751C537.669 760.741 539.4 759.826 541.127 759.003C556.542 767.849 570.311 780.119 581.461 790.795L581.838 790.35C570.781 779.764 557.108 767.566 541.776 758.698L541.859 758.66L542.006 758.592C544.178 757.595 546.344 756.741 548.502 756.022C569.411 764.358 588.057 780.705 602.382 794.421L602.759 793.976C588.589 780.409 570.124 764.197 549.376 755.738C552.009 754.903 554.63 754.268 557.237 753.815C557.769 753.924 558.299 754.039 558.828 754.16C584.569 760.056 607.664 780.045 624.67 796.328L625.047 795.883C608.044 779.604 584.856 759.515 558.962 753.584L558.847 753.558C566.78 752.403 574.573 752.918 582.138 754.651C607.878 760.547 630.973 780.536 647.979 796.818L648.356 796.374ZM513.334 748.142L513.165 748.11L513.335 748.188L513.432 748.233L513.334 748.142ZM516.206 750.806C517.462 751.982 518.688 753.145 519.884 754.291L520.261 753.846C519.193 752.823 518.1 751.786 516.984 750.737C517.052 750.732 517.12 750.727 517.188 750.721C519.789 752.058 522.349 753.501 524.862 755.03C523.938 755.341 523.013 755.677 522.087 756.037C519.791 754.286 517.441 752.576 515.04 750.928C515.429 750.883 515.818 750.842 516.206 750.806ZM514.882 749.571C515.134 749.805 515.385 750.039 515.635 750.272C515.192 750.318 514.748 750.369 514.304 750.425C513.48 749.867 512.651 749.316 511.816 748.773C511.34 748.392 510.862 748.012 510.381 747.633L510.546 747.658C510.622 747.669 510.698 747.681 510.773 747.693C512.153 748.286 513.523 748.913 514.882 749.571ZM515.196 749.068C514.944 748.835 514.692 748.601 514.438 748.367C514.833 748.45 515.226 748.537 515.62 748.627C517.308 749.014 518.984 749.461 520.649 749.964C519.539 749.986 518.427 750.038 517.311 750.122C516.609 749.763 515.904 749.411 515.196 749.068ZM520.951 756.492C519.55 755.252 518.12 754.01 516.662 752.773C518.282 753.921 519.879 755.095 521.451 756.289L521.333 756.336C521.206 756.388 521.079 756.44 520.951 756.492ZM530.047 764.852C527.321 762.265 524.445 759.597 521.433 756.919C521.618 756.844 521.803 756.77 521.988 756.698C525.14 759.109 528.191 761.598 531.129 764.106C530.768 764.35 530.408 764.599 530.047 764.852ZM531.631 763.767C532.715 763.043 533.798 762.358 534.881 761.709C531.84 759.511 528.713 757.401 525.509 755.427C524.55 755.741 523.589 756.082 522.626 756.45C525.732 758.835 528.738 761.293 531.631 763.767ZM525.594 754.789C523.21 753.326 520.783 751.938 518.318 750.644C519.714 750.562 521.105 750.53 522.491 750.545C525.098 751.401 527.674 752.39 530.214 753.493C528.678 753.859 527.138 754.29 525.594 754.789ZM535.43 761.383C532.449 759.221 529.385 757.142 526.245 755.191C527.87 754.682 529.491 754.248 531.106 753.885C534.304 755.311 537.444 756.915 540.519 758.657C538.826 759.477 537.129 760.385 535.43 761.383ZM541.549 758.169L541.68 758.108L541.801 758.052C543.761 757.152 545.717 756.368 547.666 755.693C544.638 754.521 541.563 753.518 538.448 752.717C536.335 752.918 534.211 753.235 532.078 753.676C535.164 755.083 538.196 756.652 541.166 758.348C541.227 758.319 541.289 758.29 541.35 758.261L541.471 758.205L541.549 758.169ZM531.178 753.271C533.053 752.856 534.92 752.538 536.78 752.309L536.671 752.283L536.541 752.253C532.579 751.346 528.554 750.772 524.479 750.598C526.738 751.396 528.971 752.292 531.178 753.271ZM548.535 755.399C545.795 754.314 543.017 753.365 540.204 752.576C545.439 752.234 550.604 752.59 555.673 753.512C553.305 753.986 550.925 754.611 548.535 755.399ZM445.357 697.177C471.251 703.108 494.439 723.197 511.442 739.476L511.065 739.921C494.059 723.638 470.964 703.649 445.224 697.753C432.363 694.807 418.845 695.381 405.092 701.695C391.337 708.009 377.324 720.076 363.492 740.155C331.282 786.911 330.594 829.693 330.062 862.739C330.013 865.807 329.965 868.792 329.893 871.687C329.471 888.708 328.231 902.75 320.969 912.731C313.692 922.733 300.435 928.58 276.189 929.417L276.19 928.828C300.387 927.993 313.421 922.159 320.536 912.379C327.666 902.579 328.918 888.74 329.34 871.691C329.412 868.798 329.46 865.814 329.509 862.745C330.04 829.692 330.729 786.734 363.05 739.816C376.926 719.673 391.015 707.523 404.888 701.154C418.763 694.785 432.401 694.209 445.357 697.177ZM504.727 723.765C487.724 707.486 464.536 687.397 438.642 681.466C425.686 678.498 412.048 679.074 398.173 685.443C384.3 691.812 370.212 703.962 356.335 724.105C324.014 771.023 323.325 813.981 322.795 847.034C322.745 850.103 322.697 853.087 322.626 855.98C322.203 873.029 320.952 886.868 313.822 896.668C306.707 906.448 293.672 912.282 269.475 913.117L269.475 913.706C293.721 912.869 306.978 907.022 314.254 897.02C321.516 887.039 322.757 872.997 323.178 855.976C323.25 853.081 323.298 850.097 323.348 847.029C323.879 813.982 324.568 771.2 356.777 724.444C370.609 704.365 384.622 692.298 398.377 685.984C412.13 679.67 425.648 679.096 438.509 682.042C464.25 687.938 487.345 707.927 504.35 724.21L504.727 723.765ZM433.441 664.859C459.336 670.79 482.524 690.879 499.526 707.158L499.15 707.603C482.144 691.321 459.049 671.331 433.308 665.435C420.447 662.49 406.929 663.063 393.177 669.377C379.421 675.691 365.409 687.758 351.576 707.837C319.367 754.593 318.678 797.375 318.147 830.422L318.147 830.429C318.097 833.495 318.049 836.476 317.978 839.369C317.556 856.39 316.315 870.432 309.054 880.413C301.777 890.415 288.52 896.262 264.274 897.099L264.274 896.51C288.471 895.675 301.506 889.841 308.621 880.061C315.751 870.261 317.003 856.422 317.425 839.373C317.497 836.485 317.544 833.506 317.594 830.442L317.594 830.435L317.594 830.427C318.124 797.374 318.814 754.416 351.135 707.498C365.011 687.355 379.1 675.205 392.972 668.837C406.848 662.467 420.485 661.891 433.441 664.859ZM495.268 690.025C478.265 673.746 455.077 653.657 429.183 647.726C416.227 644.758 402.589 645.334 388.714 651.704C374.841 658.072 360.753 670.222 346.876 690.365C314.555 737.283 313.866 780.241 313.335 813.294C313.286 816.363 313.238 819.347 313.166 822.24C312.744 839.289 311.492 853.128 304.362 862.928C297.247 872.708 284.213 878.542 260.016 879.377L260.015 879.966C284.261 879.129 297.518 873.282 304.795 863.28C312.057 853.299 313.297 839.257 313.719 822.236C313.791 819.341 313.839 816.357 313.888 813.289C314.42 780.242 315.108 737.46 347.318 690.704C361.15 670.625 375.163 658.558 388.918 652.244C402.671 645.93 416.189 645.356 429.05 648.302C454.79 654.198 477.885 674.187 494.891 690.47L495.268 690.025ZM425.385 630.343C451.279 636.274 474.467 656.363 491.47 672.643L491.093 673.087C474.088 656.805 450.993 636.815 425.252 630.92C412.391 627.974 398.873 628.548 385.12 634.861C371.365 641.176 357.352 653.242 343.52 673.321C311.31 720.077 310.622 762.859 310.091 795.906L310.09 795.914C310.041 798.979 309.993 801.96 309.921 804.854C309.5 821.874 308.259 835.916 300.997 845.897C293.721 855.899 280.464 861.747 256.218 862.583L256.218 861.994C280.415 861.159 293.45 855.325 300.565 845.546C307.695 835.746 308.946 821.907 309.369 804.857C309.44 801.971 309.488 798.994 309.537 795.932L309.537 795.928L309.538 795.914L309.538 795.911C310.068 762.859 310.757 719.9 343.078 672.983C356.955 652.84 371.043 640.689 384.916 634.321C398.791 627.951 412.429 627.376 425.385 630.343ZM487.75 655.22C470.747 638.941 447.559 618.852 421.665 612.921C408.709 609.953 395.071 610.529 381.196 616.899C367.323 623.267 353.235 635.417 339.358 655.56C307.037 702.478 306.348 745.436 305.817 778.489C305.768 781.558 305.72 784.542 305.649 787.435C305.226 804.484 303.974 818.323 296.844 828.123C289.729 837.903 276.695 843.737 252.498 844.572L252.497 845.161C276.743 844.324 290 838.477 297.277 828.475C304.539 818.494 305.779 804.452 306.201 787.431C306.273 784.536 306.321 781.552 306.37 778.484C306.902 745.437 307.59 702.655 339.8 655.899C353.632 635.82 367.645 623.753 381.4 617.439C395.153 611.125 408.671 610.551 421.532 613.497C447.272 619.393 470.367 639.382 487.373 655.665L487.75 655.22ZM417.734 595.608C443.629 601.539 466.816 621.628 483.819 637.908L483.443 638.352C466.437 622.07 443.342 602.081 417.601 596.185C404.74 593.239 391.222 593.813 377.47 600.126C363.714 606.441 349.702 618.508 335.869 638.586C303.66 685.342 302.971 728.124 302.44 761.171L302.44 761.176L302.439 761.207C302.39 764.262 302.342 767.234 302.271 770.119C301.849 787.14 300.608 801.181 293.346 811.162C286.07 821.164 272.813 827.012 248.567 827.849L248.567 827.259C272.764 826.424 285.799 820.59 292.914 810.811C300.044 801.011 301.295 787.172 301.718 770.123C301.79 767.229 301.837 764.245 301.887 761.176C302.417 728.124 303.106 685.165 335.428 638.248C349.304 618.105 363.392 605.955 377.265 599.586C391.141 593.216 404.778 592.641 417.734 595.608ZM479.467 620.826C462.464 604.547 439.276 584.458 413.382 578.526C400.426 575.559 386.788 576.134 372.913 582.504C359.04 588.873 344.952 601.023 331.075 621.166C298.754 668.083 298.065 711.042 297.534 744.094C297.485 747.164 297.437 750.147 297.366 753.041C296.943 770.09 295.692 783.929 288.562 793.729C281.447 803.508 268.412 809.343 244.215 810.178L244.214 810.767C268.461 809.93 281.717 804.082 288.994 794.081C296.256 784.099 297.497 770.058 297.918 753.037C297.99 750.141 298.038 747.157 298.087 744.089C298.619 711.043 299.307 668.26 331.517 621.505C345.349 601.426 359.362 589.359 373.117 583.044C386.87 576.731 400.388 576.157 413.249 579.103C438.99 584.999 462.084 604.988 479.09 621.27L479.467 620.826ZM408.463 561.762C434.357 567.693 457.545 587.782 474.548 604.061L474.171 604.506C457.165 588.224 434.07 568.234 408.329 562.338C395.468 559.393 381.951 559.966 368.198 566.28C354.442 572.595 340.43 584.661 326.598 604.74C294.388 651.496 293.7 694.278 293.168 727.325L293.168 727.331L293.168 727.337C293.118 730.401 293.07 733.381 292.999 736.272C292.577 753.293 291.336 767.335 284.075 777.316C276.798 787.318 263.541 793.165 239.295 794.002L239.295 793.413C263.492 792.578 276.527 786.744 283.642 776.965C290.772 767.164 292.024 753.325 292.446 736.276C292.518 733.385 292.566 730.404 292.615 727.337L292.615 727.33C293.145 694.277 293.835 651.319 326.156 604.402C340.032 584.258 354.121 572.108 367.993 565.74C381.869 559.37 395.506 558.794 408.463 561.762ZM468.963 587.675C451.96 571.396 428.773 551.307 402.878 545.375C389.922 542.408 376.284 542.983 362.409 549.353C348.536 555.722 334.448 567.872 320.571 588.015C288.25 634.932 287.561 677.891 287.031 710.943C286.981 714.013 286.934 716.996 286.862 719.89C286.439 736.939 285.188 750.778 278.058 760.578C270.943 770.358 257.908 776.192 233.711 777.027L233.711 777.616C257.957 776.779 271.214 770.931 278.49 760.93C285.752 750.948 286.993 736.907 287.415 719.886C287.486 716.99 287.534 714.006 287.584 710.938C288.115 677.892 288.804 635.109 321.013 588.354C334.845 568.275 348.858 556.208 362.613 549.893C376.366 543.58 389.884 543.006 402.745 545.952C428.486 551.848 451.581 571.837 468.586 588.119L468.963 587.675Z" fill="url(#paint1_radial_128_114)" fill-opacity="0.58"/>
</g>
<defs>
<radialGradient id="paint0_radial_128_114" cx="0" cy="0" r="1" gradientUnits="userSpaceOnUse" gradientTransform="translate(369.375 11.4073) rotate(33.312) scale(155.973 157.648)">
<stop stop-color="white"/>
<stop offset="1" stop-color="#1E1E1E" stop-opacity="0"/>
<stop offset="1" stop-color="#0E0E35" stop-opacity="0"/>
<stop offset="1" stop-color="white" stop-opacity="0"/>
</radialGradient>
<radialGradient id="paint1_radial_128_114" cx="0" cy="0" r="1" gradientUnits="userSpaceOnUse" gradientTransform="translate(394.995 736.56) rotate(133.346) scale(202.361 204.517)">
<stop stop-color="white"/>
<stop offset="1" stop-color="#1E1E1E" stop-opacity="0"/>
<stop offset="1" stop-color="#0E0E35" stop-opacity="0"/>
<stop offset="1" stop-color="white" stop-opacity="0"/>
</radialGradient>
<clipPath id="clip0_128_114">
<rect width="390" height="844" rx="43" fill="white"/>
</clipPath>
</defs>
</svg>
