<svg width="325" height="658" viewBox="0 0 325 658" fill="none" xmlns="http://www.w3.org/2000/svg">
<path d="M124.196 0C115.251 0 108 7.38743 108 16.5001C108 25.6132 115.251 33 124.196 33C133.141 33 140.392 25.6132 140.392 16.5001C140.392 7.38802 133.141 0.000788135 124.196 0.000788135L124.196 0ZM131.623 23.7979C131.333 24.2826 130.71 24.4363 130.235 24.1387C126.432 21.7724 121.645 21.2364 116.007 22.5487C115.464 22.6748 114.923 22.328 114.799 21.7743C114.674 21.2207 115.013 20.669 115.558 20.5429C121.728 19.1069 127.02 19.7252 131.289 22.3832C131.764 22.6807 131.915 23.3132 131.623 23.7979ZM133.606 19.3051C133.24 19.9104 132.463 20.1015 131.869 19.7291C127.515 17.0029 120.879 16.2134 115.73 17.8058C115.062 18.0114 114.357 17.6279 114.154 16.9487C113.953 16.2684 114.33 15.5512 114.996 15.3443C120.878 13.5261 128.19 14.4068 133.19 17.5367C133.784 17.9091 133.971 18.701 133.606 19.3051ZM133.776 14.6267C128.556 11.468 119.944 11.1776 114.96 12.7186C114.16 12.9659 113.313 12.5056 113.071 11.6903C112.828 10.8746 113.28 10.0129 114.081 9.76505C119.802 7.99568 129.312 8.33753 135.322 11.9722C136.043 12.4075 136.279 13.3546 135.852 14.087C135.426 14.8204 134.494 15.0621 133.777 14.6267H133.776ZM152.064 15.232C149.267 14.5526 148.77 14.0758 148.77 13.0739C148.77 12.1273 149.644 11.4903 150.946 11.4903C152.207 11.4903 153.456 11.974 154.768 12.9698C154.806 13 154.856 13.012 154.905 13.0041C154.955 12.9966 154.998 12.9692 155.027 12.9281L156.392 10.9672C156.448 10.8864 156.433 10.7751 156.357 10.7134C154.797 9.43797 153.04 8.8179 150.987 8.8179C147.968 8.8179 145.858 10.6639 145.858 13.3052C145.858 16.1376 147.677 17.1405 150.822 17.9146C153.497 18.5426 153.949 19.0686 153.949 20.0089C153.949 21.0512 153.037 21.6995 151.567 21.6995C149.934 21.6995 148.602 21.1379 147.113 19.8257C147.076 19.7922 147.026 19.7784 146.979 19.7803C146.929 19.7843 146.884 19.8079 146.854 19.8454L145.322 21.7014C145.258 21.7802 145.266 21.8945 145.339 21.9615C147.072 23.5378 149.203 24.3693 151.505 24.3693C154.758 24.3693 156.86 22.5585 156.86 19.7547C156.866 17.3889 155.475 16.0786 152.07 15.2345L152.064 15.232ZM164.221 12.4223C162.811 12.4223 161.654 12.9881 160.699 14.1477V12.8425C160.699 12.7395 160.618 12.6556 160.517 12.6556H158.013C157.912 12.6556 157.831 12.7395 157.831 12.8425V27.3445C157.831 27.447 157.912 27.5317 158.013 27.5317H160.517C160.618 27.5317 160.699 27.447 160.699 27.3445V22.7674C161.654 23.857 162.811 24.391 164.221 24.391C166.841 24.391 169.495 22.3359 169.495 18.4072C169.499 14.4777 166.845 12.4221 164.223 12.4221L164.221 12.4223ZM166.582 18.4072C166.582 20.4069 165.374 21.8039 163.641 21.8039C161.929 21.8039 160.637 20.3439 160.637 18.4072C160.637 16.4703 161.929 15.0107 163.641 15.0107C165.345 15.0105 166.582 16.4388 166.582 18.4072ZM176.293 12.4223C172.918 12.4223 170.274 15.0696 170.274 18.45C170.274 21.794 172.901 24.4126 176.252 24.4126C179.639 24.4126 182.29 21.7743 182.29 18.4072C182.29 15.0515 179.656 12.4227 176.293 12.4227V12.4223ZM176.293 21.8236C174.498 21.8236 173.144 20.3537 173.144 18.4062C173.144 16.4499 174.452 15.0302 176.252 15.0302C178.059 15.0302 179.42 16.4995 179.42 18.449C179.42 20.4049 178.105 21.8236 176.293 21.8236ZM189.496 12.6556H186.74V9.78554C186.74 9.68269 186.659 9.59875 186.559 9.59875H184.054C183.954 9.59875 183.87 9.68269 183.87 9.78554V12.6556H182.667C182.567 12.6556 182.486 12.7395 182.486 12.8425V15.0349C182.486 15.1378 182.567 15.2219 182.667 15.2219H183.87V20.8956C183.87 23.1871 184.99 24.3496 187.201 24.3496C188.098 24.3496 188.843 24.1604 189.545 23.7545C189.603 23.723 189.638 23.66 189.638 23.593V21.5044C189.638 21.4413 189.605 21.3803 189.551 21.3468C189.496 21.3113 189.429 21.3093 189.373 21.3389C188.891 21.5852 188.425 21.6995 187.903 21.6995C187.1 21.6995 186.74 21.3271 186.74 20.4956V15.2229H189.496C189.597 15.2229 189.678 15.139 189.678 15.0359V12.8437C189.682 12.7407 189.601 12.6567 189.498 12.6567L189.496 12.6556ZM199.097 12.6668V12.3143C199.097 11.2773 199.487 10.8149 200.362 10.8149C200.884 10.8149 201.304 10.9205 201.773 11.0801C201.831 11.0986 201.891 11.0893 201.938 11.0541C201.986 11.0188 202.013 10.9622 202.013 10.9023V8.75269C202.013 8.67052 201.963 8.59782 201.884 8.57358C201.389 8.42324 200.754 8.26896 199.803 8.26896C197.492 8.26896 196.267 9.5958 196.267 12.1046V12.6445H195.064C194.964 12.6445 194.881 12.7285 194.881 12.8313V15.0349C194.881 15.1378 194.964 15.2219 195.064 15.2219H196.267V23.9713C196.267 24.0757 196.351 24.1585 196.451 24.1585H198.954C199.056 24.1585 199.137 24.0757 199.137 23.9713V15.2225H201.476L205.057 23.9713C204.651 24.8895 204.251 25.0727 203.706 25.0727C203.265 25.0727 202.798 24.9387 202.325 24.6727C202.28 24.6491 202.226 24.6451 202.18 24.6589C202.131 24.6767 202.091 24.7121 202.071 24.7594L201.222 26.6569C201.182 26.7475 201.216 26.8519 201.302 26.8992C202.187 27.3879 202.986 27.5967 203.974 27.5967C205.823 27.5967 206.846 26.7179 207.746 24.3575L212.089 12.9221C212.113 12.8646 212.105 12.7996 212.07 12.7486C212.037 12.6979 211.981 12.6674 211.921 12.6674H209.314C209.235 12.6674 209.165 12.718 209.14 12.7927L206.469 20.5626L203.545 12.7876C203.518 12.7153 203.45 12.6674 203.375 12.6674H199.097V12.6668ZM193.531 12.6556H191.026C190.926 12.6556 190.842 12.7395 190.842 12.8425V23.9713C190.842 24.0757 190.926 24.1585 191.026 24.1585H193.531C193.631 24.1585 193.714 24.0757 193.714 23.9713V12.8433C193.714 12.7403 193.633 12.6563 193.531 12.6563V12.6556ZM192.293 7.58801C191.301 7.58801 190.496 8.4061 190.496 9.41669C190.496 10.4279 191.301 11.247 192.293 11.247C193.285 11.247 194.088 10.4279 194.088 9.41669C194.088 8.4063 193.283 7.58801 192.293 7.58801ZM214.228 16.2339C213.238 16.2339 212.467 15.4231 212.467 14.4385C212.467 13.4539 213.248 12.6339 214.238 12.6339C215.228 12.6339 216 13.4445 216 14.4283C216 15.4129 215.219 16.2339 214.228 16.2339ZM214.238 12.8124C213.335 12.8124 212.652 13.5434 212.652 14.4385C212.652 15.3333 213.331 16.0544 214.228 16.0544C215.132 16.0544 215.814 15.324 215.814 14.4283C215.814 13.5335 215.135 12.8124 214.238 12.8124ZM214.629 14.6129L215.128 15.3238H214.706L214.257 14.6716H213.873V15.3238H213.521V13.4394H214.344C214.776 13.4394 215.058 13.6634 215.058 14.0405C215.06 14.3495 214.884 14.5382 214.631 14.6129H214.629ZM214.331 13.7627H213.873V14.3587H214.331C214.559 14.3587 214.696 14.2446 214.696 14.0604C214.696 13.8665 214.559 13.7627 214.331 13.7627Z" fill="#62CD5D"/>
<path d="M115.17 129.19C115.17 132.55 117.12 134.68 120.84 135.49L124.32 136.27C126.12 136.66 126.87 137.53 126.87 139C126.87 140.83 125.25 141.94 122.7 141.94C120.24 141.94 118.74 140.83 118.71 138.97H114.87C114.96 142.9 118.02 145.39 122.7 145.39C127.53 145.39 130.71 142.75 130.71 138.67C130.71 135.4 128.88 133.48 125.13 132.67L121.68 131.92C119.85 131.5 119.01 130.63 119.01 129.07C119.01 127.24 120.54 126.1 122.91 126.1C125.07 126.1 126.42 127.21 126.51 129.1H130.35C130.23 125.14 127.41 122.68 122.97 122.68C118.35 122.68 115.17 125.35 115.17 129.19ZM135.474 127.21C136.674 127.21 137.664 126.22 137.664 124.99C137.664 123.76 136.674 122.8 135.474 122.8C134.214 122.8 133.224 123.76 133.224 124.99C133.224 126.22 134.214 127.21 135.474 127.21ZM133.644 145H137.304V130.18H133.644V145ZM140.245 137.26C140.245 141.55 143.005 144.7 147.205 144.7C149.335 144.7 151.165 143.83 152.095 142.45V144.91C152.095 147.37 150.475 148.96 147.955 148.96C145.705 148.96 144.235 147.82 143.995 145.9H140.335C140.785 149.86 143.695 152.29 147.955 152.29C152.755 152.29 155.725 149.2 155.725 144.25V130.18H152.335L152.125 132.22C151.255 130.63 149.515 129.7 147.295 129.7C143.065 129.7 140.245 132.94 140.245 137.26ZM143.935 137.17C143.935 134.74 145.495 132.91 147.925 132.91C150.475 132.91 152.005 134.65 152.005 137.17C152.005 139.75 150.445 141.52 147.925 141.52C145.525 141.52 143.935 139.66 143.935 137.17ZM163.173 145V137.02C163.173 134.62 164.553 133.06 166.803 133.06C168.693 133.06 169.923 134.26 169.923 136.75V145H173.583V135.88C173.583 132.04 171.663 129.73 167.943 129.73C165.933 129.73 164.133 130.6 163.203 132.1L162.903 130.18H159.513V145H163.173ZM189.645 123.07H185.805V145H189.645V123.07ZM197.626 145V137.02C197.626 134.62 199.006 133.06 201.256 133.06C203.146 133.06 204.376 134.26 204.376 136.75V145H208.036V135.88C208.036 132.04 206.116 129.73 202.396 129.73C200.386 129.73 198.586 130.6 197.656 132.1L197.356 130.18H193.966V145H197.626Z" fill="#F2F2F2"/>
<path d="M165.7 576.704C165.7 574.088 164.02 572.252 161.608 572.252C159.208 572.252 157.516 574.1 157.516 576.704C157.516 579.308 159.196 581.144 161.608 581.144C164.008 581.144 165.7 579.308 165.7 576.704ZM164.812 576.704C164.812 578.84 163.504 580.316 161.608 580.316C159.712 580.316 158.416 578.852 158.416 576.704C158.416 574.556 159.712 573.092 161.608 573.092C163.504 573.092 164.812 574.556 164.812 576.704ZM170.123 575.12C169.919 575.072 169.763 575.06 169.583 575.06C168.767 575.06 168.155 575.468 167.927 576.092L167.867 575.192H167.087V581H167.915V577.688C167.915 576.584 168.599 575.864 169.667 575.864H170.123V575.12Z" fill="#DCDCDC"/>
<line x1="179.5" y1="577.5" x2="324.5" y2="577.5" stroke="url(#paint0_linear_135_116)" stroke-linecap="round"/>
<line x1="0.5" y1="577.5" x2="145.5" y2="577.5" stroke="url(#paint1_linear_135_116)" stroke-linecap="round"/>
<path d="M111.016 640.533C112.129 637.16 115.298 634.738 119.052 634.738C121.07 634.738 122.892 635.454 124.324 636.626L128.49 632.46C125.952 630.247 122.697 628.88 119.052 628.88C113.407 628.88 108.547 632.1 106.211 636.816L111.016 640.533Z" fill="#EA4335"/>
<path d="M123.874 650.375C122.573 651.215 120.921 651.662 119.052 651.662C115.312 651.662 112.153 649.259 111.029 645.907L106.208 649.567C108.542 654.291 113.401 657.521 119.052 657.521C122.552 657.521 125.896 656.276 128.401 653.94L123.874 650.375Z" fill="#34A853"/>
<path d="M128.401 653.94C131.02 651.497 132.721 647.859 132.721 643.2C132.721 642.354 132.591 641.443 132.396 640.597H119.052V646.129H126.733C126.354 647.99 125.336 649.431 123.874 650.376L128.401 653.94Z" fill="#4A90E2"/>
<path d="M111.029 645.907C110.744 645.058 110.59 644.148 110.59 643.201C110.59 642.268 110.739 641.371 111.016 640.533L106.211 636.816C105.252 638.738 104.731 640.904 104.731 643.201C104.731 645.491 105.262 647.652 106.208 649.567L111.029 645.907Z" fill="#FBBC05"/>
<path d="M219.074 634.274C218.867 634.436 215.22 636.513 215.22 641.132C215.22 646.475 219.861 648.365 220 648.412C219.979 648.527 219.263 651.001 217.553 653.521C216.028 655.739 214.436 657.953 212.014 657.953C209.591 657.953 208.968 656.531 206.171 656.531C203.446 656.531 202.477 658 200.262 658C198.046 658 196.5 655.948 194.723 653.428C192.664 650.468 191 645.87 191 641.507C191 634.508 195.503 630.796 199.934 630.796C202.289 630.796 204.251 632.358 205.73 632.358C207.137 632.358 209.331 630.702 212.01 630.702C213.025 630.702 216.673 630.796 219.074 634.274ZM210.738 627.739C211.846 626.41 212.63 624.567 212.63 622.724C212.63 622.468 212.608 622.209 212.562 622C210.76 622.068 208.615 623.213 207.322 624.729C206.307 625.896 205.359 627.739 205.359 629.608C205.359 629.888 205.406 630.169 205.427 630.259C205.541 630.281 205.726 630.306 205.911 630.306C207.529 630.306 209.563 629.212 210.738 627.739Z" fill="#D3D3D3"/>
<defs>
<linearGradient id="paint0_linear_135_116" x1="179" y1="578" x2="325" y2="578" gradientUnits="userSpaceOnUse">
<stop stop-color="#252525"/>
<stop offset="0.963542" stop-color="#5B5B5B"/>
</linearGradient>
<linearGradient id="paint1_linear_135_116" x1="0" y1="578" x2="146" y2="578" gradientUnits="userSpaceOnUse">
<stop stop-color="#5B5B5B"/>
<stop offset="1" stop-color="#252525"/>
</linearGradient>
</defs>
</svg>
