<svg width="334" height="175" viewBox="0 0 334 175" fill="none" xmlns="http://www.w3.org/2000/svg">
<path fill-rule="evenodd" clip-rule="evenodd" d="M16.4584 4.26044C10.8492 4.26044 6.30212 8.80755 6.30212 14.4167C6.30212 20.0258 10.8492 24.5729 16.4584 24.5729C22.0675 24.5729 26.6146 20.0258 26.6146 14.4167C26.6146 8.80755 22.0675 4.26044 16.4584 4.26044ZM7.86462 14.4167C7.86462 9.67049 11.7122 5.82294 16.4584 5.82294C21.2046 5.82294 25.0521 9.67049 25.0521 14.4167C25.0521 19.1629 21.2046 23.0104 16.4584 23.0104C11.7122 23.0104 7.86462 19.1629 7.86462 14.4167Z" fill="#CFCFCF"/>
<path d="M25.3442 22.1977C25.0391 21.8926 24.5445 21.8926 24.2394 22.1977C23.9343 22.5028 23.9342 22.9974 24.2393 23.3025L28.4059 27.4692C28.711 27.7743 29.2057 27.7743 29.5108 27.4692C29.8159 27.1641 29.8159 26.6694 29.5108 26.3643L25.3442 22.1977Z" fill="#CFCFCF"/>
<circle cx="321.965" cy="16.9649" r="1.96393" transform="rotate(0.029239 321.965 16.9649)" fill="#CFCFCF"/>
<circle cx="321.965" cy="9.96493" r="1.96393" transform="rotate(0.029239 321.965 9.96493)" fill="#CFCFCF"/>
<circle cx="321.965" cy="24.0351" r="1.96393" transform="rotate(0.029239 321.965 24.0351)" fill="#CFCFCF"/>
<g clip-path="url(#clip0_163_107)">
<rect y="57" width="334" height="118" rx="30" fill="#42C83C"/>
<path fill-rule="evenodd" clip-rule="evenodd" d="M334.516 -4.6636C327.755 2.08077 319.36 11.3262 316.702 21.8197C315.871 25.0988 315.6 28.5013 316.113 31.987C315.553 34.4544 315.316 36.9893 315.496 39.5748C315.429 39.8134 315.365 40.0526 315.304 40.2925C314.832 42.1567 314.541 44.0606 314.472 45.9971C314.153 46.9028 313.873 47.8191 313.639 48.7451C313.569 49.0222 313.502 49.3002 313.44 49.5791C307.277 56.0051 300.58 64.2177 298.258 73.3823C296.927 78.6382 297.033 84.2109 299.503 89.9353C301.972 95.6569 306.794 101.508 314.854 107.338C333.631 120.919 351.102 121.601 364.506 122.123C365.751 122.172 366.96 122.219 368.133 122.275C375.053 122.606 380.594 123.244 384.45 126.187C388.286 129.115 390.528 134.39 390.641 144.199L391.23 144.213C391.117 134.355 388.866 128.857 384.812 125.763C380.778 122.684 375.033 122.052 368.142 121.723C366.967 121.666 365.757 121.619 364.513 121.571C351.115 121.047 333.821 120.37 315.202 106.904C307.206 101.12 302.466 95.3466 300.048 89.7434C297.631 84.1428 297.524 78.6899 298.831 73.5286C301.038 64.8184 307.27 56.9496 313.223 50.6524L313.217 50.6825C313.066 51.015 312.919 51.3492 312.777 51.685C308.671 56.7923 305.04 62.6107 303.454 68.8737C302.122 74.1295 302.228 79.7023 304.699 85.4266C307.168 91.1483 311.989 96.9993 320.049 102.829C338.827 116.411 356.298 117.092 369.701 117.615C370.946 117.663 372.156 117.711 373.328 117.767C380.248 118.097 385.79 118.736 389.646 121.679C393.481 124.606 395.724 129.882 395.837 139.69L396.426 139.704C396.312 129.847 394.061 124.349 390.007 121.254C385.973 118.175 380.229 117.543 373.337 117.214C372.163 117.158 370.953 117.111 369.709 117.062C356.311 116.538 339.016 115.862 320.398 102.395C312.401 96.6111 307.661 90.838 305.243 85.2347C302.826 79.6342 302.719 74.1812 304.027 69.02C305.326 63.8943 308.018 59.06 311.227 54.6659C309.732 57.3967 308.527 60.2547 307.778 63.2118C306.447 68.4676 306.553 74.0404 309.023 79.7647C311.492 85.4864 316.314 91.3374 324.374 97.1673C343.151 110.749 360.622 111.43 374.026 111.953L374.027 111.953L374.027 111.953L374.032 111.953L374.035 111.953C375.277 112.002 376.483 112.049 377.653 112.105C384.573 112.435 390.114 113.074 393.97 116.017C397.806 118.944 400.048 124.22 400.161 134.028L400.75 134.042C400.637 124.185 398.386 118.687 394.332 115.592C390.298 112.513 384.553 111.881 377.662 111.552C376.487 111.496 375.277 111.449 374.033 111.4C360.635 110.876 343.341 110.2 324.723 96.7334C316.726 90.9492 311.986 85.1761 309.568 79.5728C307.151 73.9723 307.044 68.5193 308.351 63.3581C309.027 60.69 310.081 58.101 311.389 55.6118C311.31 55.8902 311.234 56.1694 311.163 56.4495C309.832 61.7054 309.938 67.2781 312.408 73.0025C314.878 78.7242 319.699 84.5752 327.759 90.4051C346.536 103.987 364.007 104.668 377.411 105.191L377.413 105.191C378.657 105.239 379.866 105.286 381.038 105.342C387.958 105.673 393.5 106.312 397.356 109.255C401.191 112.182 403.434 117.458 403.547 127.266L404.136 127.28C404.022 117.422 401.771 111.925 397.717 108.83C393.683 105.751 387.939 105.119 381.047 104.79C379.872 104.734 378.662 104.686 377.419 104.638C364.021 104.114 346.726 103.438 328.108 89.9711C320.111 84.187 315.371 78.4138 312.953 72.8106C310.536 67.21 310.429 61.7571 311.737 56.5958C312.049 55.3626 312.442 54.1463 312.904 52.9489C312.526 56.9387 313.062 61.0772 314.884 65.298C317.353 71.0197 322.174 76.8707 330.234 82.7006C349.012 96.2822 366.483 96.9635 379.887 97.4863C381.131 97.5348 382.341 97.582 383.513 97.638C390.434 97.9686 395.975 98.6071 399.831 101.55C403.666 104.478 405.909 109.753 406.022 119.561L406.611 119.575C406.497 109.718 404.246 104.22 400.192 101.126C396.158 98.0467 390.414 97.4146 383.522 97.0853C382.348 97.0292 381.138 96.9819 379.894 96.9333C366.496 96.4094 349.201 95.7332 330.583 82.2667C322.586 76.4825 317.847 70.7094 315.428 65.1062C313.458 60.5401 313.023 56.0722 313.638 51.7804C313.889 51.3932 314.144 51.0088 314.405 50.6276C314.5 50.5141 314.596 50.401 314.691 50.2883C314.993 52.445 315.595 54.634 316.549 56.8455C319.019 62.5672 323.84 68.4182 331.9 74.2481C350.677 87.8297 368.148 88.511 381.552 89.0337C382.797 89.0823 384.007 89.1294 385.179 89.1855C392.099 89.5161 397.641 90.1546 401.497 93.0976C405.332 96.0252 407.575 101.301 407.688 111.109L408.277 111.123C408.163 101.265 405.912 95.7676 401.858 92.6731C397.824 89.5942 392.08 88.9621 385.188 88.6328C384.013 88.5767 382.803 88.5294 381.56 88.4808C368.162 87.9569 350.867 87.2807 332.249 73.8142C324.252 68.03 319.512 62.2568 317.094 56.6536C316.079 54.3025 315.472 51.9774 315.205 49.6889C315.906 48.8791 316.613 48.0894 317.32 47.3211C317.388 47.4883 317.458 47.6555 317.531 47.8229C320 53.5446 324.821 59.3956 332.881 65.2255C351.658 78.8071 369.13 79.4884 382.533 80.0111L382.536 80.0112L382.539 80.0113L382.544 80.0115L382.549 80.0117C383.789 80.0601 384.993 80.1071 386.16 80.1628C393.08 80.4935 398.622 81.132 402.478 84.075C406.313 87.0025 408.556 92.2781 408.669 102.086L409.258 102.1C409.144 92.2428 406.893 86.745 402.839 83.6505C398.805 80.5716 393.061 79.9395 386.169 79.6102C384.995 79.5541 383.784 79.5068 382.541 79.4582C369.143 78.9343 351.848 78.258 333.23 64.7915C325.233 59.0074 320.493 53.2342 318.075 47.631C317.963 47.3711 317.856 47.1116 317.754 46.8524C318.804 45.7237 319.85 44.6429 320.87 43.6139C323.641 47.6441 327.684 51.7148 333.298 55.7752C352.075 69.3568 369.546 70.0382 382.95 70.5609C384.194 70.6094 385.404 70.6566 386.576 70.7126C393.497 71.0432 399.038 71.6817 402.894 74.6248C406.729 77.5523 408.972 82.8278 409.085 92.636L409.674 92.6499C409.56 82.7926 407.309 77.2947 403.255 74.2003C399.221 71.1213 393.477 70.4892 386.585 70.16C385.411 70.1039 384.201 70.0566 382.957 70.0079C369.559 69.4841 352.264 68.8078 333.646 55.3413C328.019 51.2715 324.005 47.2071 321.278 43.2035L321.462 43.0184L321.704 42.7773L321.268 42.3904C321.162 42.4964 321.055 42.6031 320.948 42.7104C320.912 42.6547 320.875 42.5991 320.839 42.5435C322.59 40.5992 324.356 38.7837 326.028 37.1154L325.593 36.7285C323.961 38.3564 322.233 40.1301 320.515 42.0318C320.295 41.6787 320.086 41.3261 319.886 40.9741C322.924 37.0101 326.328 33.4311 329.413 30.3532L328.978 29.9662C325.951 32.9855 322.597 36.5061 319.577 40.4155C319.251 39.8132 318.954 39.2127 318.683 38.614C322.399 32.4918 327.47 27.0565 331.889 22.6487L331.453 22.2618C327.126 26.5783 322.129 31.9194 318.396 37.9566C318.063 37.1655 317.776 36.3774 317.532 35.5927C321.101 27.2428 327.868 19.8687 333.554 14.1962L333.119 13.8092C327.585 19.3292 320.957 26.5244 317.276 34.7082C317.033 33.8094 316.846 32.9154 316.711 32.0267C316.758 31.8228 316.807 31.6193 316.859 31.4162C319.479 21.0755 327.772 11.9208 334.536 5.17361L334.1 4.78662C327.528 11.3429 319.411 20.2627 316.521 30.3949C316.287 27.5177 316.582 24.7009 317.275 21.966C319.895 11.6253 328.188 2.47054 334.952 -4.27662L334.516 -4.6636ZM314.565 49.253C314.494 49.3906 314.425 49.5284 314.356 49.6666C314.43 49.5611 314.504 49.456 314.579 49.3511L314.569 49.249L314.565 49.253ZM316.271 47.075C316.483 46.8011 316.697 46.5292 316.912 46.2592C316.829 46.0275 316.75 45.796 316.674 45.5649C316.291 46.1714 315.922 46.785 315.567 47.4053C315.736 47.235 315.905 47.0662 316.073 46.899L316.271 47.075ZM320.538 43.1223C319.927 43.7385 319.304 44.3741 318.676 45.0283C319.261 44.3322 319.852 43.6501 320.446 42.9827L320.506 43.0741L320.538 43.1223ZM320.118 42.473C319.907 42.1377 319.705 41.8028 319.511 41.4683C318.664 42.5926 317.85 43.7471 317.081 44.9291C317.162 45.1951 317.248 45.4615 317.34 45.7282C318.25 44.6073 319.182 43.5213 320.118 42.473ZM314.411 48.2768L314.337 48.4149C314.382 48.2483 314.429 48.0821 314.477 47.9162C314.48 47.9892 314.483 48.0622 314.487 48.1352L314.411 48.2768ZM316.445 44.8301C315.959 45.5858 315.491 46.3529 315.045 47.1308C315.042 46.7908 315.046 46.4517 315.057 46.1136C315.368 45.2386 315.716 44.3732 316.097 43.5184C316.2 43.9545 316.316 44.3917 316.445 44.8301ZM319.196 40.9127C318.389 41.9763 317.608 43.068 316.867 44.1854C316.726 43.6688 316.605 43.1538 316.501 42.6405C317.054 41.4767 317.666 40.3332 318.326 39.2121C318.592 39.7778 318.882 40.3447 319.196 40.9127ZM318.028 38.56C318.001 38.4975 317.974 38.4351 317.947 38.3727C317.665 37.719 317.413 37.0673 317.192 36.4178C316.768 37.4797 316.398 38.5568 316.09 39.6476C316.139 40.3148 316.216 40.9853 316.323 41.6588C316.849 40.6079 317.42 39.5744 318.028 38.56ZM315.889 42.555C315.806 42.1318 315.735 41.7098 315.676 41.289C315.471 42.2147 315.312 43.1494 315.205 44.0924C315.421 43.5761 315.649 43.0636 315.889 42.555ZM316.911 35.5453C316.588 36.3109 316.292 37.0848 316.026 37.8665C316.027 36.4168 316.158 34.9841 316.4 33.5712C316.541 34.2267 316.711 34.8848 316.911 35.5453ZM292.347 76.8256C295.006 66.3321 303.401 57.0867 310.162 50.3423L310.597 50.7293C303.833 57.4765 295.54 66.6312 292.92 76.9719C291.613 82.1332 291.72 87.5862 294.137 93.1867C296.555 98.7899 301.295 104.563 309.292 110.347C327.91 123.814 345.204 124.49 358.602 125.014C359.846 125.062 361.056 125.11 362.231 125.166C369.122 125.495 374.867 126.127 378.901 129.206C382.955 132.301 385.206 137.799 385.319 147.656L384.731 147.642C384.617 137.834 382.375 132.558 378.539 129.631C374.684 126.688 369.142 126.049 362.222 125.719C361.049 125.663 359.84 125.615 358.595 125.567C345.191 125.044 327.72 124.363 308.943 110.781C300.883 104.951 296.061 99.1003 293.592 93.3786C291.122 87.6543 291.016 82.0815 292.347 76.8256ZM303.726 52.9196C296.965 59.6639 288.57 68.9093 285.912 79.4029C284.58 84.6587 284.686 90.2315 287.156 95.9558C289.626 101.678 294.447 107.529 302.507 113.358C321.284 126.94 338.755 127.621 352.159 128.144L352.159 128.144C353.404 128.193 354.614 128.24 355.786 128.296C362.706 128.626 368.248 129.265 372.104 132.208C375.939 135.135 378.182 140.411 378.295 150.219L378.884 150.233C378.77 140.376 376.519 134.878 372.465 131.783C368.431 128.704 362.687 128.072 355.795 127.743C354.621 127.687 353.41 127.64 352.167 127.591C338.769 127.067 321.474 126.391 302.856 112.924C294.859 107.14 290.119 101.367 287.701 95.764C285.284 90.1634 285.177 84.7104 286.485 79.5492C289.105 69.2084 297.398 60.0537 304.162 53.3065L303.726 52.9196ZM279.127 81.3578C281.786 70.8642 290.181 61.6188 296.942 54.8745L297.377 55.2615C290.613 62.0086 282.32 71.1633 279.7 81.5041C278.393 86.6654 278.5 92.1183 280.917 97.7189C283.335 103.322 288.075 109.095 296.071 114.879C314.689 128.346 331.984 129.022 345.382 129.546C346.626 129.595 347.836 129.642 349.01 129.698C355.902 130.027 361.647 130.659 365.681 133.738C369.735 136.833 371.986 142.331 372.099 152.188L371.51 152.174C371.397 142.366 369.155 137.09 365.319 134.163C361.463 131.22 355.922 130.581 349.002 130.251C347.829 130.195 346.62 130.148 345.375 130.099C331.971 129.576 314.5 128.895 295.723 115.313C287.663 109.483 282.841 103.632 280.372 97.9107C277.902 92.1864 277.795 86.6137 279.127 81.3578ZM289.952 56.4422C283.191 63.1865 274.796 72.4319 272.138 82.9255C270.806 88.1814 270.912 93.7541 273.383 99.4784C275.852 105.2 280.673 111.051 288.734 116.881C307.511 130.463 324.982 131.144 338.386 131.667C339.63 131.715 340.84 131.762 342.012 131.818C348.933 132.149 354.474 132.788 358.33 135.731C362.165 138.658 364.408 143.934 364.521 153.742L365.11 153.756C364.996 143.898 362.745 138.4 358.691 135.306C354.657 132.227 348.913 131.595 342.021 131.266C340.847 131.21 339.637 131.162 338.393 131.114C324.995 130.59 307.7 129.914 289.082 116.447C281.085 110.663 276.346 104.89 273.927 99.2866C271.511 93.686 271.403 88.2331 272.711 83.0718C275.331 72.731 283.624 63.5763 290.388 56.8292L289.952 56.4422ZM265.051 84.304C267.71 73.8105 276.105 64.5651 282.866 57.8207L283.301 58.2077C276.538 64.9548 268.244 74.1096 265.625 84.4503C264.317 89.6116 264.424 95.0645 266.841 100.665C269.259 106.268 273.999 112.041 281.996 117.826C300.614 131.292 317.909 131.968 331.307 132.492C332.55 132.541 333.76 132.588 334.935 132.644C341.827 132.974 347.571 133.606 351.605 136.685C355.659 139.779 357.91 145.277 358.024 155.134L357.435 155.12C357.322 145.312 355.079 140.037 351.243 137.109C347.388 134.166 341.846 133.528 334.926 133.197C333.754 133.141 332.544 133.094 331.299 133.045C317.895 132.522 300.424 131.841 281.647 118.26C273.587 112.43 268.765 106.579 266.296 100.857C263.826 95.1326 263.72 89.5599 265.051 84.304ZM275.764 59.1674C269.003 65.9118 260.608 75.1572 257.95 85.6507C256.618 90.9066 256.724 96.4794 259.195 102.204C261.664 107.925 266.485 113.776 274.545 119.606C293.323 133.188 310.794 133.869 324.198 134.392C325.442 134.44 326.652 134.488 327.824 134.544C334.744 134.874 340.286 135.513 344.142 138.456C347.977 141.383 350.22 146.659 350.333 156.467L350.922 156.481C350.808 146.624 348.557 141.126 344.503 138.031C340.469 134.952 334.725 134.32 327.833 133.991C326.659 133.935 325.449 133.888 324.205 133.839C310.807 133.315 293.512 132.639 274.894 119.172C266.897 113.388 262.158 107.615 259.739 102.012C257.323 96.4113 257.215 90.9583 258.523 85.7971C261.143 75.4563 269.436 66.3016 276.2 59.5544L275.764 59.1674ZM250.891 87.0839C253.549 76.5903 261.944 67.3449 268.705 60.6006L269.141 60.9875C262.377 67.7347 254.084 76.8894 251.464 87.2302C250.156 92.3914 250.264 97.8444 252.68 103.445C255.099 109.048 259.838 114.821 267.835 120.605C286.453 134.072 303.748 134.748 317.146 135.272C318.39 135.321 319.6 135.368 320.774 135.424C327.666 135.753 333.41 136.385 337.444 139.464C341.498 142.559 343.749 148.057 343.863 157.914L343.274 157.9C343.161 148.092 340.918 142.816 337.083 139.889C333.227 136.946 327.686 136.307 320.765 135.977C319.593 135.921 318.383 135.874 317.139 135.825C303.735 135.302 286.264 134.621 267.487 121.039C259.426 115.21 254.605 109.358 252.136 103.637C249.665 97.9125 249.559 92.3397 250.891 87.0839ZM261.736 62.2068C254.975 68.9511 246.58 78.1965 243.921 88.6901C242.59 93.9459 242.696 99.5187 245.166 105.243C247.636 110.965 252.457 116.816 260.517 122.646C279.294 136.227 296.765 136.909 310.169 137.431L310.169 137.431C311.414 137.48 312.624 137.527 313.796 137.583C320.716 137.914 326.258 138.552 330.114 141.495C333.949 144.423 336.192 149.698 336.305 159.506L336.894 159.52C336.78 149.663 334.529 144.165 330.475 141.071C326.441 137.992 320.697 137.36 313.805 137.03C312.63 136.974 311.42 136.927 310.177 136.878C296.779 136.354 279.484 135.678 260.866 122.212C252.869 116.427 248.129 110.654 245.711 105.051C243.294 99.4506 243.187 93.9976 244.495 88.8364C247.115 78.4956 255.408 69.3409 262.171 62.5937L261.736 62.2068ZM237.075 90.5294C239.734 80.0359 248.129 70.7905 254.89 64.0461L255.325 64.4331C248.562 71.1803 240.268 80.335 237.649 90.6757C236.341 95.837 236.448 101.29 238.865 106.891C241.283 112.494 246.023 118.267 254.02 124.051C272.638 137.518 289.933 138.194 303.33 138.718C304.574 138.766 305.784 138.814 306.959 138.87C313.85 139.199 319.595 139.831 323.629 142.91C327.683 146.004 329.934 151.502 330.048 161.36L329.459 161.346C329.346 151.538 327.103 146.262 323.267 143.334C319.412 140.391 313.87 139.753 306.95 139.422C305.778 139.366 304.568 139.319 303.323 139.271L303.323 139.271C289.919 138.748 272.448 138.067 253.671 124.485C245.611 118.655 240.789 112.804 238.32 107.082C235.85 101.358 235.744 95.7853 237.075 90.5294ZM248.191 66.1585C241.43 72.9029 233.035 82.1483 230.377 92.6418C229.045 97.8977 229.151 103.47 231.622 109.195C234.091 114.916 238.912 120.767 246.972 126.597C265.749 140.179 283.221 140.86 296.624 141.383L296.624 141.383L296.624 141.383C297.869 141.432 299.079 141.479 300.251 141.535C307.171 141.865 312.713 142.504 316.569 145.447C320.404 148.374 322.647 153.65 322.76 163.458L323.349 163.472C323.235 153.615 320.984 148.117 316.93 145.022C312.896 141.943 307.152 141.311 300.26 140.982C299.086 140.926 297.875 140.879 296.632 140.83C283.234 140.306 265.939 139.63 247.321 126.163C239.324 120.379 234.584 114.606 232.166 109.003C229.749 103.402 229.642 97.9494 230.95 92.7881C233.57 82.4474 241.863 73.2927 248.627 66.5455L248.191 66.1585Z" fill="url(#paint0_radial_163_107)" fill-opacity="0.58"/>
<path d="M21.07 82V76.82L24.51 82H25.77V74.69H24.51V79.87L21.08 74.69H19.81V82H21.07ZM29.4181 82.13C30.7081 82.13 31.6081 81.48 31.8181 80.4H30.6881C30.5481 80.87 30.1081 81.13 29.4381 81.13C28.6281 81.13 28.1681 80.69 28.0781 79.82L31.7981 79.81V79.44C31.7981 77.9 30.8581 76.91 29.3781 76.91C27.9281 76.91 26.9181 77.98 26.9181 79.53C26.9181 81.06 27.9481 82.13 29.4181 82.13ZM29.3881 77.91C30.1181 77.91 30.5881 78.36 30.5881 79.04H28.1081C28.2281 78.3 28.6681 77.91 29.3881 77.91ZM33.6497 82H34.8397L35.5197 79.88C35.7697 79.07 35.8597 78.72 35.9097 78.49C35.9497 78.74 36.0597 79.21 36.2597 79.86L36.9397 82H38.0797L39.7897 77.06H38.4997L37.8397 79.18C37.7497 79.49 37.5897 80.08 37.5097 80.45C37.4497 80.12 37.2497 79.38 37.1897 79.18L36.5297 77.06H35.2897L34.6097 79.18C34.4497 79.67 34.3597 79.98 34.2697 80.46C34.1797 80 34.0797 79.57 33.9697 79.18L33.3197 77.06H32.0497L33.6497 82ZM44.0338 82L44.6238 80.31H47.3538L47.9438 82H49.2938L46.6538 74.69H45.3438L42.7038 82H44.0338ZM45.8338 76.87C45.9038 76.67 45.9638 76.45 45.9938 76.31C46.0138 76.46 46.0838 76.68 46.1438 76.87L46.9838 79.23H45.0038L45.8338 76.87ZM51.2604 82V74.56H50.0504V82H51.2604ZM53.6702 82L53.7502 81.23C54.0402 81.8 54.6702 82.13 55.4102 82.13C56.8302 82.13 57.7602 81.08 57.7602 79.56C57.7602 78 56.9002 76.9 55.4902 76.9C54.7402 76.9 54.0802 77.23 53.7602 77.78V74.56H52.5402V82H53.6702ZM53.7702 79.51C53.7702 78.62 54.3202 78 55.1602 78C56.0202 78 56.5302 78.63 56.5302 79.51C56.5302 80.39 56.0202 81.01 55.1602 81.01C54.3202 81.01 53.7702 80.4 53.7702 79.51ZM61.9644 77.06V79.65C61.9644 80.59 61.5944 81.04 60.8244 81.04C60.1444 81.04 59.7744 80.66 59.7744 79.72V77.06H58.5544V80.15C58.5544 81.36 59.2244 82.13 60.3644 82.13C61.0244 82.13 61.6644 81.81 61.9644 81.34L62.0544 82H63.1844V77.06H61.9644ZM65.6645 82V79.2C65.6645 78.4 66.1345 78.02 66.7145 78.02C67.2945 78.02 67.6645 78.39 67.6645 79.08V82H68.8845V79.2C68.8845 78.39 69.3345 78.01 69.9245 78.01C70.5045 78.01 70.8845 78.38 70.8845 79.09V82H72.0945V78.77C72.0945 77.63 71.4345 76.91 70.2345 76.91C69.4845 76.91 68.9045 77.28 68.6545 77.85C68.3945 77.28 67.8745 76.91 67.1245 76.91C66.4145 76.91 65.9145 77.23 65.6645 77.64L65.5645 77.06H64.4445V82H65.6645Z" fill="#FBFBFB"/>
<path d="M20.053 156H23.901C25.864 156 26.995 155.051 26.995 153.426C26.995 152.321 26.488 151.567 25.487 151.242C26.384 150.865 26.852 150.111 26.852 149.058C26.852 147.472 25.708 146.497 23.836 146.497H20.053V156ZM23.693 147.966C24.629 147.966 25.149 148.408 25.149 149.227C25.149 150.072 24.642 150.553 23.732 150.553H21.717V147.966H23.693ZM23.836 151.957C24.759 151.957 25.292 152.412 25.292 153.218C25.292 154.076 24.772 154.531 23.836 154.531H21.717V151.957H23.836ZM29.0798 148.291C29.5998 148.291 30.0288 147.862 30.0288 147.329C30.0288 146.796 29.5998 146.38 29.0798 146.38C28.5338 146.38 28.1048 146.796 28.1048 147.329C28.1048 147.862 28.5338 148.291 29.0798 148.291ZM28.2868 156H29.8728V149.578H28.2868V156ZM33.1104 156V146.328H31.5374V156H33.1104ZM36.3731 156V146.328H34.8001V156H36.3731ZM38.8298 148.291C39.3498 148.291 39.7788 147.862 39.7788 147.329C39.7788 146.796 39.3498 146.38 38.8298 146.38C38.2838 146.38 37.8548 146.796 37.8548 147.329C37.8548 147.862 38.2838 148.291 38.8298 148.291ZM38.0368 156H39.6228V149.578H38.0368V156ZM44.1344 156.169C45.8114 156.169 46.9814 155.324 47.2544 153.92H45.7854C45.6034 154.531 45.0314 154.869 44.1604 154.869C43.1074 154.869 42.5094 154.297 42.3924 153.166L47.2284 153.153V152.672C47.2284 150.67 46.0064 149.383 44.0824 149.383C42.1974 149.383 40.8844 150.774 40.8844 152.789C40.8844 154.778 42.2234 156.169 44.1344 156.169ZM44.0954 150.683C45.0444 150.683 45.6554 151.268 45.6554 152.152H42.4314C42.5874 151.19 43.1594 150.683 44.0954 150.683ZM58.1376 156V154.466H53.8996V151.944H57.6956V150.475H53.8996V148.031H58.1376V146.497H52.2356V156H58.1376ZM60.5007 148.291C61.0207 148.291 61.4497 147.862 61.4497 147.329C61.4497 146.796 61.0207 146.38 60.5007 146.38C59.9547 146.38 59.5257 146.796 59.5257 147.329C59.5257 147.862 59.9547 148.291 60.5007 148.291ZM59.7077 156H61.2937V149.578H59.7077V156ZM64.5313 156V146.328H62.9583V156H64.5313ZM66.988 148.291C67.508 148.291 67.937 147.862 67.937 147.329C67.937 146.796 67.508 146.38 66.988 146.38C66.442 146.38 66.013 146.796 66.013 147.329C66.013 147.862 66.442 148.291 66.988 148.291ZM66.195 156H67.781V149.578H66.195V156ZM68.9256 154.05C68.9256 155.311 69.9396 156.169 71.5386 156.169C73.1246 156.169 74.2296 155.363 74.2296 154.063C74.2296 153.075 73.6836 152.581 72.6046 152.334L71.4476 152.061C70.9016 151.931 70.6156 151.697 70.6156 151.333C70.6156 150.852 70.9796 150.566 71.6036 150.566C72.2146 150.566 72.5786 150.917 72.5916 151.463H74.0996C74.0866 150.215 73.1116 149.383 71.6686 149.383C70.1866 149.383 69.1206 150.137 69.1206 151.398C69.1206 152.425 69.6796 152.971 70.8366 153.231L71.9936 153.504C72.5656 153.634 72.7346 153.868 72.7346 154.193C72.7346 154.661 72.3316 154.96 71.5906 154.96C70.8626 154.96 70.4466 154.609 70.4336 154.05H68.9256ZM77.0232 156V152.49C77.0232 151.528 77.6082 150.826 78.6092 150.826C79.4152 150.826 79.9482 151.346 79.9482 152.425V156H81.5342V152.048C81.5342 150.384 80.7022 149.383 79.1162 149.383C78.1932 149.383 77.4392 149.786 77.0362 150.41V146.328H75.4372V156H77.0232Z" fill="#FBFBFB"/>
<path d="M22.971 107V101.11H29.127V107H31.559V93.111H29.127V98.849H22.971V93.111H20.539V107H22.971ZM37.0916 107.247C38.5546 107.247 39.8276 106.582 40.2266 105.613L40.3976 107H42.4306V101.3C42.4306 98.697 40.8726 97.329 38.3456 97.329C35.7996 97.329 34.1276 98.659 34.1276 100.692H36.1036C36.1036 99.704 36.8636 99.134 38.2316 99.134C39.4096 99.134 40.1696 99.647 40.1696 100.92V101.129L37.3576 101.338C35.1346 101.509 33.8806 102.592 33.8806 104.321C33.8806 106.088 35.0966 107.247 37.0916 107.247ZM37.8516 105.499C36.8066 105.499 36.2366 105.081 36.2366 104.226C36.2366 103.466 36.7876 102.991 38.2316 102.858L40.1886 102.706V103.2C40.1886 104.644 39.2766 105.499 37.8516 105.499ZM44.7077 111.351H47.0257V105.746C47.6147 106.696 48.8307 107.247 50.2367 107.247C53.0297 107.247 54.6257 105.119 54.6257 102.193C54.6257 99.248 52.8777 97.329 50.2367 97.329C48.8117 97.329 47.5767 97.956 47.0067 99.039L46.8547 97.614H44.7077V111.351ZM47.0447 102.307C47.0447 100.616 48.0897 99.438 49.6857 99.438C51.3197 99.438 52.2887 100.635 52.2887 102.307C52.2887 103.979 51.3197 105.157 49.6857 105.157C48.0897 105.157 47.0447 103.998 47.0447 102.307ZM56.4714 111.351H58.7894V105.746C59.3784 106.696 60.5944 107.247 62.0004 107.247C64.7934 107.247 66.3894 105.119 66.3894 102.193C66.3894 99.248 64.6414 97.329 62.0004 97.329C60.5754 97.329 59.3404 97.956 58.7704 99.039L58.6184 97.614H56.4714V111.351ZM58.8084 102.307C58.8084 100.616 59.8534 99.438 61.4494 99.438C63.0834 99.438 64.0524 100.635 64.0524 102.307C64.0524 103.979 63.0834 105.157 61.4494 105.157C59.8534 105.157 58.8084 103.998 58.8084 102.307ZM69.3941 95.733C70.1541 95.733 70.7811 95.106 70.7811 94.327C70.7811 93.548 70.1541 92.94 69.3941 92.94C68.5961 92.94 67.9691 93.548 67.9691 94.327C67.9691 95.106 68.5961 95.733 69.3941 95.733ZM68.2351 107H70.5531V97.614H68.2351V107ZM77.147 107.247C79.598 107.247 81.308 106.012 81.707 103.96H79.56C79.294 104.853 78.458 105.347 77.185 105.347C75.646 105.347 74.772 104.511 74.601 102.858L81.669 102.839V102.136C81.669 99.21 79.883 97.329 77.071 97.329C74.316 97.329 72.397 99.362 72.397 102.307C72.397 105.214 74.354 107.247 77.147 107.247ZM77.09 99.229C78.477 99.229 79.37 100.084 79.37 101.376H74.658C74.886 99.97 75.722 99.229 77.09 99.229ZM89.4141 97.576C89.0341 97.481 88.7111 97.443 88.3881 97.443C87.1341 97.443 86.2411 98.07 85.8421 99.001L85.7091 97.633H83.5241V107H85.8421V102.44C85.8421 100.616 86.8871 99.723 88.5591 99.723H89.4141V97.576ZM95.2302 95.353H99.2962V107H101.728V95.353H105.794V93.111H95.2302V95.353ZM109.629 107V101.87C109.629 100.464 110.484 99.438 111.947 99.438C113.125 99.438 113.904 100.198 113.904 101.775V107H116.222V101.224C116.222 98.792 115.006 97.329 112.688 97.329C111.339 97.329 110.237 97.918 109.648 98.83V92.864H107.311V107H109.629ZM121.293 107.247C122.756 107.247 124.029 106.582 124.428 105.613L124.599 107H126.632V101.3C126.632 98.697 125.074 97.329 122.547 97.329C120.001 97.329 118.329 98.659 118.329 100.692H120.305C120.305 99.704 121.065 99.134 122.433 99.134C123.611 99.134 124.371 99.647 124.371 100.92V101.129L121.559 101.338C119.336 101.509 118.082 102.592 118.082 104.321C118.082 106.088 119.298 107.247 121.293 107.247ZM122.053 105.499C121.008 105.499 120.438 105.081 120.438 104.226C120.438 103.466 120.989 102.991 122.433 102.858L124.39 102.706V103.2C124.39 104.644 123.478 105.499 122.053 105.499ZM131.227 107V101.946C131.227 100.426 132.101 99.438 133.526 99.438C134.723 99.438 135.502 100.198 135.502 101.775V107H137.82V101.224C137.82 98.792 136.604 97.329 134.248 97.329C132.975 97.329 131.835 97.88 131.246 98.83L131.056 97.614H128.909V107H131.227ZM29.165 133V130.758H22.971V127.072H28.519V124.925H22.971V121.353H29.165V119.111H20.539V133H29.165ZM33.7115 133H35.9915L39.9055 123.614H37.5115L35.8015 127.927C35.4025 128.953 35.0605 129.941 34.9275 130.53C34.8135 130.017 34.4905 129.048 34.0915 127.927L32.4575 123.614H29.9875L33.7115 133ZM44.9731 133.247C47.4241 133.247 49.1341 132.012 49.5331 129.96H47.3861C47.1201 130.853 46.2841 131.347 45.0111 131.347C43.4721 131.347 42.5981 130.511 42.4271 128.858L49.4951 128.839V128.136C49.4951 125.21 47.7091 123.329 44.8971 123.329C42.1421 123.329 40.2231 125.362 40.2231 128.307C40.2231 131.214 42.1801 133.247 44.9731 133.247ZM44.9161 125.229C46.3031 125.229 47.1961 126.084 47.1961 127.376H42.4841C42.7121 125.97 43.5481 125.229 44.9161 125.229ZM57.2403 123.576C56.8603 123.481 56.5373 123.443 56.2143 123.443C54.9603 123.443 54.0673 124.07 53.6683 125.001L53.5353 123.633H51.3503V133H53.6683V128.44C53.6683 126.616 54.7133 125.723 56.3853 125.723H57.2403V123.576Z" fill="#FBFBFB"/>
</g>
<path d="M129.196 0C120.251 0 113 7.38743 113 16.5001C113 25.6132 120.251 33 129.196 33C138.141 33 145.392 25.6132 145.392 16.5001C145.392 7.38802 138.141 0.000788135 129.196 0.000788135L129.196 0ZM136.623 23.7979C136.333 24.2826 135.71 24.4363 135.235 24.1387C131.432 21.7724 126.645 21.2364 121.007 22.5487C120.464 22.6748 119.923 22.328 119.799 21.7743C119.674 21.2207 120.013 20.669 120.558 20.5429C126.728 19.1069 132.02 19.7252 136.289 22.3832C136.764 22.6807 136.915 23.3132 136.623 23.7979ZM138.606 19.3051C138.24 19.9104 137.463 20.1015 136.869 19.7291C132.515 17.0029 125.879 16.2134 120.73 17.8058C120.062 18.0114 119.357 17.6279 119.154 16.9487C118.953 16.2684 119.33 15.5512 119.996 15.3443C125.878 13.5261 133.19 14.4068 138.19 17.5367C138.784 17.9091 138.971 18.701 138.606 19.3051ZM138.776 14.6267C133.556 11.468 124.944 11.1776 119.96 12.7186C119.16 12.9659 118.313 12.5056 118.071 11.6903C117.828 10.8746 118.28 10.0129 119.081 9.76505C124.802 7.99568 134.312 8.33753 140.322 11.9722C141.043 12.4075 141.279 13.3546 140.852 14.087C140.426 14.8204 139.494 15.0621 138.777 14.6267H138.776ZM157.064 15.232C154.267 14.5526 153.77 14.0758 153.77 13.0739C153.77 12.1273 154.644 11.4903 155.946 11.4903C157.207 11.4903 158.456 11.974 159.768 12.9698C159.806 13 159.856 13.012 159.905 13.0041C159.955 12.9966 159.998 12.9692 160.027 12.9281L161.392 10.9672C161.448 10.8864 161.433 10.7751 161.357 10.7134C159.797 9.43797 158.04 8.8179 155.987 8.8179C152.968 8.8179 150.858 10.6639 150.858 13.3052C150.858 16.1376 152.677 17.1405 155.822 17.9146C158.497 18.5426 158.949 19.0686 158.949 20.0089C158.949 21.0512 158.037 21.6995 156.567 21.6995C154.934 21.6995 153.602 21.1379 152.113 19.8257C152.076 19.7922 152.026 19.7784 151.979 19.7803C151.929 19.7843 151.884 19.8079 151.854 19.8454L150.322 21.7014C150.258 21.7802 150.266 21.8945 150.339 21.9615C152.072 23.5378 154.203 24.3693 156.505 24.3693C159.758 24.3693 161.86 22.5585 161.86 19.7547C161.866 17.3889 160.475 16.0786 157.07 15.2345L157.064 15.232ZM169.221 12.4223C167.811 12.4223 166.654 12.9881 165.699 14.1477V12.8425C165.699 12.7395 165.618 12.6556 165.517 12.6556H163.013C162.912 12.6556 162.831 12.7395 162.831 12.8425V27.3445C162.831 27.447 162.912 27.5317 163.013 27.5317H165.517C165.618 27.5317 165.699 27.447 165.699 27.3445V22.7674C166.654 23.857 167.811 24.391 169.221 24.391C171.841 24.391 174.495 22.3359 174.495 18.4072C174.499 14.4777 171.845 12.4221 169.223 12.4221L169.221 12.4223ZM171.582 18.4072C171.582 20.4069 170.374 21.8039 168.641 21.8039C166.929 21.8039 165.637 20.3439 165.637 18.4072C165.637 16.4703 166.929 15.0107 168.641 15.0107C170.345 15.0105 171.582 16.4388 171.582 18.4072ZM181.293 12.4223C177.918 12.4223 175.274 15.0696 175.274 18.45C175.274 21.794 177.901 24.4126 181.252 24.4126C184.639 24.4126 187.29 21.7743 187.29 18.4072C187.29 15.0515 184.656 12.4227 181.293 12.4227V12.4223ZM181.293 21.8236C179.498 21.8236 178.144 20.3537 178.144 18.4062C178.144 16.4499 179.452 15.0302 181.252 15.0302C183.059 15.0302 184.42 16.4995 184.42 18.449C184.42 20.4049 183.105 21.8236 181.293 21.8236ZM194.496 12.6556H191.74V9.78554C191.74 9.68269 191.659 9.59875 191.559 9.59875H189.054C188.954 9.59875 188.87 9.68269 188.87 9.78554V12.6556H187.667C187.567 12.6556 187.486 12.7395 187.486 12.8425V15.0349C187.486 15.1378 187.567 15.2219 187.667 15.2219H188.87V20.8956C188.87 23.1871 189.99 24.3496 192.201 24.3496C193.098 24.3496 193.843 24.1604 194.545 23.7545C194.603 23.723 194.638 23.66 194.638 23.593V21.5044C194.638 21.4413 194.605 21.3803 194.551 21.3468C194.496 21.3113 194.429 21.3093 194.373 21.3389C193.891 21.5852 193.425 21.6995 192.903 21.6995C192.1 21.6995 191.74 21.3271 191.74 20.4956V15.2229H194.496C194.597 15.2229 194.678 15.139 194.678 15.0359V12.8437C194.682 12.7407 194.601 12.6567 194.498 12.6567L194.496 12.6556ZM204.097 12.6668V12.3143C204.097 11.2773 204.487 10.8149 205.362 10.8149C205.884 10.8149 206.304 10.9205 206.773 11.0801C206.831 11.0986 206.891 11.0893 206.938 11.0541C206.986 11.0188 207.013 10.9622 207.013 10.9023V8.75269C207.013 8.67052 206.963 8.59782 206.884 8.57358C206.389 8.42324 205.754 8.26896 204.803 8.26896C202.492 8.26896 201.267 9.5958 201.267 12.1046V12.6445H200.064C199.964 12.6445 199.881 12.7285 199.881 12.8313V15.0349C199.881 15.1378 199.964 15.2219 200.064 15.2219H201.267V23.9713C201.267 24.0757 201.351 24.1585 201.451 24.1585H203.954C204.056 24.1585 204.137 24.0757 204.137 23.9713V15.2225H206.476L210.057 23.9713C209.651 24.8895 209.251 25.0727 208.706 25.0727C208.265 25.0727 207.798 24.9387 207.325 24.6727C207.28 24.6491 207.226 24.6451 207.18 24.6589C207.131 24.6767 207.091 24.7121 207.071 24.7594L206.222 26.6569C206.182 26.7475 206.216 26.8519 206.302 26.8992C207.187 27.3879 207.986 27.5967 208.974 27.5967C210.823 27.5967 211.846 26.7179 212.746 24.3575L217.089 12.9221C217.113 12.8646 217.105 12.7996 217.07 12.7486C217.037 12.6979 216.981 12.6674 216.921 12.6674H214.314C214.235 12.6674 214.165 12.718 214.14 12.7927L211.469 20.5626L208.545 12.7876C208.518 12.7153 208.45 12.6674 208.375 12.6674H204.097V12.6668ZM198.531 12.6556H196.026C195.926 12.6556 195.842 12.7395 195.842 12.8425V23.9713C195.842 24.0757 195.926 24.1585 196.026 24.1585H198.531C198.631 24.1585 198.714 24.0757 198.714 23.9713V12.8433C198.714 12.7403 198.633 12.6563 198.531 12.6563V12.6556ZM197.293 7.58801C196.301 7.58801 195.496 8.4061 195.496 9.41669C195.496 10.4279 196.301 11.247 197.293 11.247C198.285 11.247 199.088 10.4279 199.088 9.41669C199.088 8.4063 198.283 7.58801 197.293 7.58801ZM219.228 16.2339C218.238 16.2339 217.467 15.4231 217.467 14.4385C217.467 13.4539 218.248 12.6339 219.238 12.6339C220.228 12.6339 221 13.4445 221 14.4283C221 15.4129 220.219 16.2339 219.228 16.2339ZM219.238 12.8124C218.335 12.8124 217.652 13.5434 217.652 14.4385C217.652 15.3333 218.331 16.0544 219.228 16.0544C220.132 16.0544 220.814 15.324 220.814 14.4283C220.814 13.5335 220.135 12.8124 219.238 12.8124ZM219.629 14.6129L220.128 15.3238H219.706L219.257 14.6716H218.873V15.3238H218.521V13.4394H219.344C219.776 13.4394 220.058 13.6634 220.058 14.0405C220.06 14.3495 219.884 14.5382 219.631 14.6129H219.629ZM219.331 13.7627H218.873V14.3587H219.331C219.559 14.3587 219.696 14.2446 219.696 14.0604C219.696 13.8665 219.559 13.7627 219.331 13.7627Z" fill="#62CD5D"/>
<defs>
<radialGradient id="paint0_radial_163_107" cx="0" cy="0" r="1" gradientUnits="userSpaceOnUse" gradientTransform="translate(307.981 97.6409) rotate(44.6554) scale(82.2368 83.1472)">
<stop stop-color="white"/>
<stop offset="1" stop-color="#1E1E1E" stop-opacity="0"/>
<stop offset="1" stop-color="#0E0E35" stop-opacity="0"/>
<stop offset="1" stop-color="white" stop-opacity="0"/>
</radialGradient>
<clipPath id="clip0_163_107">
<rect y="57" width="334" height="118" rx="30" fill="white"/>
</clipPath>
</defs>
</svg>
