<svg width="116" height="36" viewBox="0 0 116 36" fill="none" xmlns="http://www.w3.org/2000/svg">
<path d="M7.01588 18.5327C8.12881 15.1604 11.298 12.7384 15.0518 12.7384C17.0697 12.7384 18.8923 13.4544 20.3243 14.6261L24.4903 10.4601C21.9517 8.24696 18.697 6.88 15.0518 6.88C9.40725 6.88 4.54746 10.1001 2.21112 14.816L7.01588 18.5327Z" fill="#EA4335"/>
<path d="M19.874 28.3755C18.5734 29.2153 16.9208 29.6623 15.0519 29.6623C11.3124 29.6623 8.15316 27.2588 7.02884 23.9066L2.20819 27.5668C4.54162 32.291 9.40128 35.5207 15.0519 35.5207C18.5519 35.5207 21.8963 34.2765 24.401 31.9401L19.874 28.3755Z" fill="#34A853"/>
<path d="M24.4009 31.9401C27.0203 29.4967 28.7213 25.8588 28.7213 21.2003C28.7213 20.3541 28.5911 19.4428 28.3958 18.5966H15.0518V24.1295H22.7327C22.3537 25.99 21.3364 27.4311 19.8738 28.3755L24.4009 31.9401Z" fill="#4A90E2"/>
<path d="M7.02885 23.9071C6.74404 23.0579 6.58982 22.1479 6.58982 21.2006C6.58982 20.2678 6.7394 19.371 7.01598 18.5329L2.21121 14.8161C1.25246 16.7379 0.731445 18.9039 0.731445 21.2006C0.731445 23.4914 1.26223 25.6521 2.2082 27.5673L7.02885 23.9071Z" fill="#FBBC05"/>
<path d="M115.074 12.2736C114.867 12.4356 111.22 14.5131 111.22 19.1323C111.22 24.4752 115.861 26.3654 116 26.4122C115.979 26.5275 115.263 29.0009 113.553 31.5212C112.028 33.739 110.436 35.9532 108.014 35.9532C105.591 35.9532 104.968 34.5311 102.171 34.5311C99.4464 34.5311 98.4775 36 96.2618 36C94.0461 36 92.5001 33.9478 90.7225 31.4275C88.6636 28.468 87 23.8704 87 19.5068C87 12.5077 91.5026 8.79568 95.934 8.79568C98.2887 8.79568 100.251 10.3582 101.73 10.3582C103.137 10.3582 105.331 8.70207 108.01 8.70207C109.025 8.70207 112.673 8.79568 115.074 12.2736V12.2736ZM106.738 5.73897C107.846 4.41044 108.63 2.56706 108.63 0.723672C108.63 0.468047 108.608 0.208821 108.562 0C106.76 0.0684068 104.615 1.21332 103.322 2.72907C102.307 3.89559 101.359 5.73897 101.359 7.60756C101.359 7.88839 101.406 8.16922 101.427 8.25923C101.541 8.28083 101.726 8.30603 101.911 8.30603C103.529 8.30603 105.563 7.21152 106.738 5.73897Z" fill="#D3D3D3"/>
</svg>
