<svg width="262" height="43" viewBox="0 0 262 43" fill="none" xmlns="http://www.w3.org/2000/svg">
<path d="M62.304 17L63.248 14.296H67.616L68.56 17H70.72L66.496 5.304H64.4L60.176 17H62.304ZM65.184 8.792C65.296 8.472 65.392 8.12 65.44 7.896C65.472 8.136 65.584 8.488 65.68 8.792L67.024 12.568H63.856L65.184 8.792ZM71.2906 14.6C71.2906 16.152 72.5386 17.208 74.5066 17.208C76.4586 17.208 77.8186 16.216 77.8186 14.616C77.8186 13.4 77.1466 12.792 75.8186 12.488L74.3946 12.152C73.7226 11.992 73.3706 11.704 73.3706 11.256C73.3706 10.664 73.8186 10.312 74.5866 10.312C75.3386 10.312 75.7866 10.744 75.8026 11.416H77.6586C77.6426 9.88 76.4426 8.856 74.6666 8.856C72.8426 8.856 71.5306 9.784 71.5306 11.336C71.5306 12.6 72.2186 13.272 73.6426 13.592L75.0666 13.928C75.7706 14.088 75.9786 14.376 75.9786 14.776C75.9786 15.352 75.4826 15.72 74.5706 15.72C73.6746 15.72 73.1626 15.288 73.1466 14.6H71.2906ZM85.9534 5.304H83.9054V17H85.9534V5.304ZM90.946 17V10.728H92.482V9.096H90.946V6.632H88.994V9.096H87.474V10.728H88.994V17H90.946ZM100.728 17H102.744L105.288 8.488L107.784 17H109.768L113.32 5.304H111.24L109.352 11.496C109.176 12.088 109.016 12.712 108.792 13.8C108.6 12.808 108.424 12.136 108.232 11.48L106.424 5.304H104.168L102.328 11.48C102.12 12.152 101.944 12.76 101.752 13.8C101.576 12.776 101.4 12.12 101.224 11.48L99.368 5.304H97.24L100.728 17ZM115.735 17.208C116.967 17.208 118.039 16.648 118.375 15.832L118.519 17H120.231V12.2C120.231 10.008 118.919 8.856 116.791 8.856C114.647 8.856 113.239 9.976 113.239 11.688H114.903C114.903 10.856 115.543 10.376 116.695 10.376C117.687 10.376 118.327 10.808 118.327 11.88V12.056L115.959 12.232C114.087 12.376 113.031 13.288 113.031 14.744C113.031 16.232 114.055 17.208 115.735 17.208ZM116.375 15.736C115.495 15.736 115.015 15.384 115.015 14.664C115.015 14.024 115.479 13.624 116.695 13.512L118.343 13.384V13.8C118.343 15.016 117.575 15.736 116.375 15.736ZM121.541 14.6C121.541 16.152 122.789 17.208 124.757 17.208C126.709 17.208 128.069 16.216 128.069 14.616C128.069 13.4 127.397 12.792 126.069 12.488L124.645 12.152C123.973 11.992 123.621 11.704 123.621 11.256C123.621 10.664 124.069 10.312 124.837 10.312C125.589 10.312 126.037 10.744 126.053 11.416H127.909C127.893 9.88 126.693 8.856 124.917 8.856C123.093 8.856 121.781 9.784 121.781 11.336C121.781 12.6 122.469 13.272 123.893 13.592L125.317 13.928C126.021 14.088 126.229 14.376 126.229 14.776C126.229 15.352 125.733 15.72 124.821 15.72C123.925 15.72 123.413 15.288 123.397 14.6H121.541Z" fill="#D6D6D6"/>
<path d="M62.908 40V36.04H67.552V40H68.404V31.408H67.552V35.236H62.908V31.408H62.044V40H62.908ZM71.9929 40.144C72.9769 40.144 73.7689 39.712 74.1289 38.98L74.2369 40H74.9329V36.244C74.9329 34.708 73.9489 34.036 72.6049 34.036C71.1769 34.036 70.2169 34.792 70.2169 35.968H70.9729C70.9729 35.188 71.5729 34.732 72.5809 34.732C73.4329 34.732 74.1169 35.092 74.1169 36.232V36.424L72.1969 36.58C70.8409 36.688 70.0249 37.36 70.0249 38.428C70.0249 39.448 70.7569 40.144 71.9929 40.144ZM72.1849 39.472C71.3929 39.472 70.8649 39.112 70.8649 38.404C70.8649 37.756 71.3089 37.276 72.4009 37.18L74.1169 37.048V37.36C74.1169 38.62 73.4089 39.472 72.1849 39.472ZM79.6305 34.12C79.4265 34.072 79.2705 34.06 79.0905 34.06C78.2745 34.06 77.6625 34.468 77.4345 35.092L77.3745 34.192H76.5945V40H77.4225V36.688C77.4225 35.584 78.1065 34.864 79.1745 34.864H79.6305V34.12ZM83.7672 34.12C83.5632 34.072 83.4072 34.06 83.2272 34.06C82.4112 34.06 81.7992 34.468 81.5712 35.092L81.5112 34.192H80.7312V40H81.5592V36.688C81.5592 35.584 82.2432 34.864 83.3112 34.864H83.7672V34.12ZM84.4557 42.532C84.7197 42.592 84.9837 42.616 85.3317 42.616C86.1597 42.616 86.7237 42.244 87.0597 41.332L89.7237 34.192H88.8717L87.0357 39.256L85.1637 34.192H84.2877L86.6397 40.348L86.3877 41.032C86.0997 41.812 85.5957 41.848 85.0917 41.848H84.4557V42.532ZM93.6843 33.64C93.6843 34.816 94.3923 35.584 95.7363 35.908L97.1883 36.268C98.1123 36.484 98.5443 36.988 98.5443 37.756C98.5443 38.74 97.7403 39.352 96.4803 39.352C95.3043 39.352 94.5123 38.764 94.4643 37.864H93.5763C93.6843 39.268 94.8123 40.144 96.4803 40.144C98.2563 40.144 99.4083 39.196 99.4083 37.708C99.4083 36.544 98.7123 35.776 97.3683 35.452L95.8923 35.092C94.9923 34.864 94.5483 34.384 94.5483 33.628C94.5483 32.656 95.3403 32.032 96.5523 32.032C97.6323 32.032 98.2923 32.584 98.3883 33.556H99.2643C99.1323 32.116 98.1123 31.252 96.5643 31.252C94.8363 31.252 93.6843 32.2 93.6843 33.64ZM102.114 40V34.888H103.278V34.192H102.114V32.356H101.298V34.192H100.134V34.888H101.298V40H102.114ZM103.768 42.532C104.032 42.592 104.296 42.616 104.644 42.616C105.472 42.616 106.036 42.244 106.372 41.332L109.036 34.192H108.184L106.348 39.256L104.476 34.192H103.6L105.952 40.348L105.7 41.032C105.412 41.812 104.908 41.848 104.404 41.848H103.768V42.532ZM110.869 40V31.252H110.041V40H110.869ZM115.066 40.144C116.434 40.144 117.334 39.484 117.646 38.26H116.854C116.638 39.028 116.026 39.436 115.078 39.436C113.83 39.436 113.086 38.62 113.026 37.204H117.646V36.796C117.646 35.152 116.578 34.036 115.006 34.036C113.35 34.036 112.222 35.284 112.222 37.096C112.222 38.92 113.362 40.144 115.066 40.144ZM115.006 34.744C116.098 34.744 116.818 35.488 116.818 36.604H113.05C113.194 35.464 113.914 34.744 115.006 34.744ZM118.477 38.368C118.477 39.448 119.293 40.144 120.601 40.144C121.921 40.144 122.809 39.46 122.809 38.416C122.809 37.576 122.353 37.108 121.345 36.856L120.349 36.604C119.713 36.448 119.401 36.136 119.401 35.692C119.401 35.068 119.857 34.72 120.673 34.72C121.453 34.72 121.921 35.116 121.945 35.788H122.749C122.713 34.708 121.921 34.036 120.697 34.036C119.449 34.036 118.597 34.684 118.597 35.704C118.597 36.496 119.089 37.024 120.097 37.276L121.093 37.528C121.777 37.696 122.017 37.972 122.017 38.452C122.017 39.076 121.489 39.46 120.589 39.46C119.773 39.46 119.269 39.04 119.269 38.368H118.477Z" fill="#D6D6D6"/>
<path d="M235.35 31.18C237.6 31.18 239.13 29.65 239.13 27.49C239.13 25.48 237.75 23.875 235.515 23.875C234.675 23.875 233.895 24.145 233.295 24.625L234.105 21.25H238.515V20.26H233.325L232.035 25.66L232.89 25.93C233.475 25.285 234.375 24.835 235.365 24.835C237.06 24.835 238.035 26.02 238.035 27.52C238.035 29.11 236.985 30.19 235.365 30.19C233.835 30.19 232.89 29.26 232.89 27.715H231.81C231.81 29.83 233.19 31.18 235.35 31.18ZM241.86 25.42C242.37 25.42 242.805 24.985 242.805 24.49C242.805 23.98 242.37 23.56 241.86 23.56C241.35 23.56 240.915 23.98 240.915 24.49C240.915 24.985 241.35 25.42 241.86 25.42ZM241.86 31.165C242.37 31.165 242.805 30.745 242.805 30.25C242.805 29.74 242.37 29.305 241.86 29.305C241.35 29.305 240.915 29.74 240.915 30.25C240.915 30.745 241.35 31.165 241.86 31.165ZM247.774 25.24C249.694 25.24 250.744 26.155 250.744 27.625C250.744 29.185 249.709 30.205 248.104 30.205C246.589 30.205 245.629 29.275 245.629 27.73H244.564C244.564 29.875 245.989 31.18 248.104 31.18C250.279 31.18 251.839 29.785 251.839 27.655C251.839 25.705 250.399 24.43 248.389 24.325L251.599 21.13V20.26H245.089V21.22H250.234L246.919 24.49V25.24H247.774ZM256.387 25.24C258.307 25.24 259.357 26.155 259.357 27.625C259.357 29.185 258.322 30.205 256.717 30.205C255.202 30.205 254.242 29.275 254.242 27.73H253.177C253.177 29.875 254.602 31.18 256.717 31.18C258.892 31.18 260.452 29.785 260.452 27.655C260.452 25.705 259.012 24.43 257.002 24.325L260.212 21.13V20.26H253.702V21.22H258.847L255.532 24.49V25.24H256.387Z" fill="#D6D6D6"/>
<circle cx="18.5" cy="21.5" r="18.5" fill="#2C2C2C"/>
<path d="M21.9538 16.7784C20.7269 16.0789 19.7739 15.5355 18.9999 15.183C18.2231 14.8292 17.5487 14.6294 16.893 14.6974C15.8523 14.8054 14.9049 15.3447 14.2875 16.1839C13.8975 16.714 13.7352 17.3943 13.6569 18.2366C13.579 19.0756 13.579 20.1629 13.579 21.5613V21.6196C13.579 23.018 13.579 24.1053 13.6569 24.9442C13.7352 25.7865 13.8975 26.4669 14.2875 26.997C14.9049 27.8362 15.8523 28.3754 16.893 28.4835C17.5487 28.5515 18.2231 28.3517 18.9999 27.9979C19.7739 27.6454 20.7269 27.102 21.9538 26.4025L22.0036 26.3741C23.2304 25.6746 24.1834 25.1312 24.8796 24.6454C25.5778 24.1583 26.0924 23.6802 26.3622 23.0817C26.7901 22.1326 26.7901 21.0483 26.3622 20.0992C26.0924 19.5007 25.5778 19.0226 24.8796 18.5354C24.1834 18.0497 23.2304 17.5063 22.0036 16.8068L21.9538 16.7784Z" fill="#959595"/>
</svg>
