<svg width="262" height="43" viewBox="0 0 262 43" fill="none" xmlns="http://www.w3.org/2000/svg">
<path d="M66.416 7.032C67.824 7.032 69.008 7.672 69.376 9.048H71.536C71.2 6.664 69.136 5.112 66.464 5.112C62.944 5.112 60.624 7.64 60.624 11.192C60.624 14.792 62.912 17.176 66.192 17.176C67.776 17.176 69.104 16.552 69.744 15.656L69.872 17H71.6V10.424H66.16V12.232H69.696V12.28C69.696 14.152 68.464 15.272 66.432 15.272C64.272 15.272 62.768 13.848 62.768 11.24C62.768 8.712 64.096 7.032 66.416 7.032ZM73.0596 13.032C73.0596 15.496 74.8356 17.192 77.2836 17.192C79.7316 17.192 81.5076 15.496 81.5076 13.032C81.5076 10.568 79.7316 8.872 77.2836 8.872C74.8356 8.872 73.0596 10.568 73.0596 13.032ZM75.0116 13.032C75.0116 11.592 75.9396 10.616 77.2836 10.616C78.6276 10.616 79.5556 11.592 79.5556 13.032C79.5556 14.472 78.6276 15.448 77.2836 15.448C75.9396 15.448 75.0116 14.472 75.0116 13.032ZM86.3029 17.208C87.5029 17.208 88.5269 16.68 89.0069 15.768L89.1349 17H90.9269V5.096H88.9909V10.104C88.4949 9.32 87.5189 8.856 86.4149 8.856C84.0309 8.856 82.5909 10.616 82.5909 13.08C82.5909 15.528 84.0149 17.208 86.3029 17.208ZM86.7349 15.416C85.3749 15.416 84.5429 14.424 84.5429 13.016C84.5429 11.608 85.3749 10.6 86.7349 10.6C88.0949 10.6 88.9749 11.592 88.9749 13.016C88.9749 14.44 88.0949 15.416 86.7349 15.416ZM101.77 17C105.162 17 107.498 14.616 107.498 11.176C107.498 7.688 105.114 5.304 101.658 5.304H97.5616V17H101.77ZM101.466 7.192C103.882 7.192 105.338 8.696 105.338 11.176C105.338 13.608 103.914 15.112 101.578 15.112H99.6096V7.192H101.466ZM110.093 7.512C110.733 7.512 111.261 6.984 111.261 6.328C111.261 5.672 110.733 5.16 110.093 5.16C109.421 5.16 108.893 5.672 108.893 6.328C108.893 6.984 109.421 7.512 110.093 7.512ZM109.117 17H111.069V9.096H109.117V17ZM116.334 17.208C117.534 17.208 118.558 16.68 119.038 15.768L119.166 17H120.958V5.096H119.022V10.104C118.526 9.32 117.55 8.856 116.446 8.856C114.062 8.856 112.622 10.616 112.622 13.08C112.622 15.528 114.046 17.208 116.334 17.208ZM116.766 15.416C115.406 15.416 114.574 14.424 114.574 13.016C114.574 11.608 115.406 10.6 116.766 10.6C118.126 10.6 119.006 11.592 119.006 13.016C119.006 14.44 118.126 15.416 116.766 15.416Z" fill="#D6D6D6"/>
<path d="M64.66 40C67.24 40 68.956 38.272 68.956 35.704C68.956 33.136 67.228 31.408 64.636 31.408H62.044V40H64.66ZM64.6 32.2C66.724 32.2 68.068 33.556 68.068 35.704C68.068 37.84 66.724 39.208 64.624 39.208H62.908V32.2H64.6ZM69.7127 37.636C69.7127 39.124 70.6007 40.144 72.1487 40.144C73.6007 40.144 74.6087 39.208 74.6087 37.648V31.408H73.7447V37.624C73.7447 38.644 73.2407 39.328 72.1487 39.328C71.1047 39.328 70.5527 38.656 70.5527 37.636V37.3H69.7127V37.636ZM80.826 31.408H79.962V40H80.826V37.864L82.518 35.764L85.038 40H86.046L83.082 35.044L85.998 31.408H84.966L80.826 36.58V31.408ZM88.0045 39.988V36.832C88.0045 35.716 88.6525 34.792 89.9005 34.792C90.8005 34.792 91.4365 35.272 91.4365 36.628V40H92.2645V36.448C92.2645 34.984 91.5805 34.036 90.0565 34.036C89.0845 34.036 88.3765 34.504 88.0045 35.2V31.252H87.1765V39.988H88.0045ZM95.5828 40.144C96.5668 40.144 97.3588 39.712 97.7188 38.98L97.8268 40H98.5228V36.244C98.5228 34.708 97.5388 34.036 96.1948 34.036C94.7668 34.036 93.8068 34.792 93.8068 35.968H94.5628C94.5628 35.188 95.1628 34.732 96.1708 34.732C97.0228 34.732 97.7068 35.092 97.7068 36.232V36.424L95.7868 36.58C94.4308 36.688 93.6148 37.36 93.6148 38.428C93.6148 39.448 94.3468 40.144 95.5828 40.144ZM95.7748 39.472C94.9828 39.472 94.4548 39.112 94.4548 38.404C94.4548 37.756 94.8988 37.276 95.9908 37.18L97.7068 37.048V37.36C97.7068 38.62 96.9988 39.472 95.7748 39.472ZM101.048 40V31.252H100.22V40H101.048ZM105.245 40.144C106.613 40.144 107.513 39.484 107.825 38.26H107.033C106.817 39.028 106.205 39.436 105.257 39.436C104.009 39.436 103.265 38.62 103.205 37.204H107.825V36.796C107.825 35.152 106.757 34.036 105.185 34.036C103.529 34.036 102.401 35.284 102.401 37.096C102.401 38.92 103.541 40.144 105.245 40.144ZM105.185 34.744C106.277 34.744 106.997 35.488 106.997 36.604H103.229C103.373 35.464 104.093 34.744 105.185 34.744ZM111.429 40.144C112.401 40.144 113.217 39.712 113.625 38.812L113.709 40H114.429V31.252H113.601V35.296C113.193 34.456 112.425 34.036 111.465 34.036C109.737 34.036 108.741 35.356 108.741 37.108C108.741 38.848 109.737 40.144 111.429 40.144ZM111.573 39.388C110.313 39.388 109.581 38.428 109.581 37.084C109.581 35.752 110.313 34.78 111.573 34.78C112.845 34.78 113.589 35.752 113.589 37.084C113.589 38.428 112.845 39.388 111.573 39.388Z" fill="#D6D6D6"/>
<path d="M234.795 25.24C236.715 25.24 237.765 26.155 237.765 27.625C237.765 29.185 236.73 30.205 235.125 30.205C233.61 30.205 232.65 29.275 232.65 27.73H231.585C231.585 29.875 233.01 31.18 235.125 31.18C237.3 31.18 238.86 29.785 238.86 27.655C238.86 25.705 237.42 24.43 235.41 24.325L238.62 21.13V20.26H232.11V21.22H237.255L233.94 24.49V25.24H234.795ZM241.64 25.42C242.15 25.42 242.585 24.985 242.585 24.49C242.585 23.98 242.15 23.56 241.64 23.56C241.13 23.56 240.695 23.98 240.695 24.49C240.695 24.985 241.13 25.42 241.64 25.42ZM241.64 31.165C242.15 31.165 242.585 30.745 242.585 30.25C242.585 29.74 242.15 29.305 241.64 29.305C241.13 29.305 240.695 29.74 240.695 30.25C240.695 30.745 241.13 31.165 241.64 31.165ZM252.309 28.72V27.76H251.049V20.26H249.609L244.359 27.76V28.72H249.999V31H251.049V28.72H252.309ZM245.529 27.76L249.999 21.37V27.76H245.529ZM256.87 25.24C258.79 25.24 259.84 26.155 259.84 27.625C259.84 29.185 258.805 30.205 257.2 30.205C255.685 30.205 254.725 29.275 254.725 27.73H253.66C253.66 29.875 255.085 31.18 257.2 31.18C259.375 31.18 260.935 29.785 260.935 27.655C260.935 25.705 259.495 24.43 257.485 24.325L260.695 21.13V20.26H254.185V21.22H259.33L256.015 24.49V25.24H256.87Z" fill="#D6D6D6"/>
<circle cx="18.5" cy="21.5" r="18.5" fill="#2C2C2C"/>
<path d="M21.9538 16.7784C20.7269 16.0789 19.7739 15.5355 18.9999 15.183C18.2231 14.8292 17.5487 14.6294 16.893 14.6974C15.8523 14.8054 14.9049 15.3447 14.2875 16.1839C13.8975 16.714 13.7352 17.3943 13.6569 18.2366C13.579 19.0756 13.579 20.1629 13.579 21.5613V21.6196C13.579 23.018 13.579 24.1053 13.6569 24.9442C13.7352 25.7865 13.8975 26.4669 14.2875 26.997C14.9049 27.8362 15.8523 28.3754 16.893 28.4835C17.5487 28.5515 18.2231 28.3517 18.9999 27.9979C19.7739 27.6454 20.7269 27.102 21.9538 26.4025L22.0036 26.3741C23.2304 25.6746 24.1834 25.1312 24.8796 24.6454C25.5778 24.1583 26.0924 23.6802 26.3622 23.0817C26.7901 22.1326 26.7901 21.0483 26.3622 20.0992C26.0924 19.5007 25.5778 19.0226 24.8796 18.5354C24.1834 18.0497 23.2304 17.5063 22.0036 16.8068L21.9538 16.7784Z" fill="#959595"/>
</svg>
