<svg width="335" height="240" viewBox="0 0 335 240" fill="none" xmlns="http://www.w3.org/2000/svg">
<path d="M6.636 34.988V33.56H2.988L4.572 32.204C5.904 31.064 6.576 30.14 6.576 28.916C6.576 27.14 5.412 26.072 3.54 26.072C1.68 26.072 0.456 27.32 0.444 29.24H1.968C1.98 28.112 2.58 27.44 3.54 27.44C4.464 27.44 5.004 28.004 5.004 29C5.004 29.84 4.608 30.416 3.42 31.424L0.552 33.848V35L6.636 34.988ZM8.92641 30.776C9.45441 30.776 9.89841 30.344 9.89841 29.828C9.89841 29.3 9.45441 28.868 8.92641 28.868C8.39841 28.868 7.95441 29.3 7.95441 29.828C7.95441 30.344 8.39841 30.776 8.92641 30.776ZM9.89841 34.472C9.89841 33.728 9.46641 33.236 8.86641 33.236C8.32641 33.236 7.95441 33.62 7.95441 34.196C7.95441 34.676 8.33841 35.024 8.80641 35.024C8.95041 35.024 9.05841 35 9.15441 34.952C9.15441 35.372 8.74641 35.696 8.20641 35.792V36.38C9.17841 36.26 9.89841 35.468 9.89841 34.472ZM17.429 34.988V33.56H13.781L15.365 32.204C16.697 31.064 17.369 30.14 17.369 28.916C17.369 27.14 16.205 26.072 14.333 26.072C12.473 26.072 11.249 27.32 11.237 29.24H12.761C12.773 28.112 13.373 27.44 14.333 27.44C15.257 27.44 15.797 28.004 15.797 29C15.797 29.84 15.401 30.416 14.213 31.424L11.345 33.848V35L17.429 34.988ZM21.2939 35.144C23.2499 35.144 24.5819 33.848 24.5819 31.952C24.5819 30.224 23.4179 29.036 21.6659 29.036C21.0659 29.036 20.5379 29.192 20.1179 29.468L20.5859 27.644H24.0539V26.228H19.4819L18.4019 30.824L19.7579 31.112C20.0699 30.656 20.6819 30.32 21.3539 30.32C22.4099 30.32 23.0219 31.016 23.0219 32.036C23.0219 33.104 22.3619 33.776 21.3299 33.776C20.3579 33.776 19.7699 33.188 19.7699 32.192H18.2459C18.2459 33.968 19.4579 35.144 21.2939 35.144Z" fill="#878787"/>
<path d="M312.308 33.332V31.988H311.24V26.228H309.308L305.336 31.988V33.332H309.788V35H311.24V33.332H312.308ZM306.968 31.988L309.788 27.884V31.988H306.968ZM314.618 30.776C315.146 30.776 315.59 30.344 315.59 29.828C315.59 29.3 315.146 28.868 314.618 28.868C314.09 28.868 313.646 29.3 313.646 29.828C313.646 30.344 314.09 30.776 314.618 30.776ZM314.618 35.144C315.146 35.144 315.59 34.712 315.59 34.196C315.59 33.668 315.146 33.236 314.618 33.236C314.09 33.236 313.646 33.668 313.646 34.196C313.646 34.712 314.09 35.144 314.618 35.144ZM317 30.632C317 33.344 318.38 35.156 320.708 35.156C323.036 35.156 324.428 33.344 324.428 30.632C324.428 27.908 322.952 26.06 320.708 26.06C318.464 26.06 317 27.908 317 30.632ZM318.512 30.632C318.512 28.556 319.328 27.416 320.708 27.416C322.1 27.416 322.916 28.556 322.916 30.632C322.916 32.66 322.1 33.8 320.708 33.8C319.328 33.8 318.512 32.66 318.512 30.632ZM331.581 34.988V33.56H327.933L329.517 32.204C330.849 31.064 331.521 30.14 331.521 28.916C331.521 27.14 330.357 26.072 328.485 26.072C326.625 26.072 325.401 27.32 325.389 29.24H326.913C326.925 28.112 327.525 27.44 328.485 27.44C329.409 27.44 329.949 28.004 329.949 29C329.949 29.84 329.553 30.416 328.365 31.424L325.497 33.848V35L331.581 34.988Z" fill="#878787"/>
<line x1="5" y1="9" x2="334" y2="9.00003" stroke="#888888" stroke-opacity="0.3" stroke-width="2" stroke-linecap="round"/>
<line x1="2" y1="8" x2="160" y2="7.99999" stroke="#B7B7B7" stroke-width="4" stroke-linecap="round"/>
<circle cx="156" cy="8" r="8" fill="#B7B7B7"/>
<circle cx="169" cy="120" r="36" fill="#42C83C"/>
<path d="M166.375 109.5C166.375 109.017 165.983 108.625 165.5 108.625C165.017 108.625 164.625 109.017 164.625 109.5V130.5C164.625 130.983 165.017 131.375 165.5 131.375C165.983 131.375 166.375 130.983 166.375 130.5L166.375 109.5Z" fill="white"/>
<path d="M173.375 109.5C173.375 109.017 172.983 108.625 172.5 108.625C172.017 108.625 171.625 109.017 171.625 109.5L171.625 130.5C171.625 130.983 172.017 131.375 172.5 131.375C172.983 131.375 173.375 130.983 173.375 130.5V109.5Z" fill="white"/>
<path d="M96.2292 115.5C96.2292 115.051 95.8654 114.688 95.4167 114.688C94.968 114.688 94.6042 115.051 94.6042 115.5V128.5C94.6042 128.949 94.968 129.313 95.4167 129.313C95.8654 129.313 96.2292 128.949 96.2292 128.5L96.2292 115.5Z" fill="#A7A7A7"/>
<path d="M106.778 114.703C106.045 114.624 105.316 114.857 104.534 115.224C103.756 115.59 102.803 116.149 101.599 116.856L101.525 116.9C100.322 117.607 99.3689 118.167 98.669 118.67C97.9646 119.176 97.4064 119.699 97.1101 120.376C96.6578 121.41 96.6578 122.59 97.1101 123.624C97.4064 124.301 97.9646 124.824 98.669 125.33C99.3689 125.833 100.322 126.393 101.525 127.1L101.6 127.144C102.803 127.851 103.756 128.41 104.534 128.776C105.316 129.143 106.045 129.376 106.778 129.297C107.896 129.178 108.907 128.582 109.562 127.664C109.991 127.064 110.156 126.313 110.234 125.442C110.313 124.576 110.313 123.457 110.313 122.042V121.958C110.313 120.543 110.313 119.424 110.234 118.558C110.156 117.687 109.991 116.936 109.562 116.336C108.907 115.418 107.896 114.822 106.778 114.703Z" fill="#A7A7A7"/>
<path d="M242.396 115.5C242.396 115.051 242.032 114.688 241.583 114.688C241.135 114.688 240.771 115.051 240.771 115.5V128.5C240.771 128.949 241.135 129.313 241.583 129.313C242.032 129.313 242.396 128.949 242.396 128.5V115.5Z" fill="#A7A7A7"/>
<path d="M235.401 116.856C234.197 116.149 233.244 115.59 232.466 115.224C231.684 114.857 230.955 114.624 230.222 114.703C229.104 114.822 228.093 115.418 227.438 116.336C227.01 116.936 226.844 117.687 226.766 118.558C226.687 119.424 226.687 120.543 226.688 121.958V122.042C226.687 123.457 226.687 124.576 226.766 125.442C226.844 126.313 227.01 127.064 227.438 127.664C228.093 128.582 229.104 129.178 230.222 129.297C230.955 129.376 231.684 129.143 232.466 128.776C233.244 128.41 234.197 127.851 235.401 127.144L235.475 127.1C236.678 126.393 237.631 125.833 238.331 125.33C239.035 124.824 239.594 124.301 239.89 123.624C240.342 122.59 240.342 121.41 239.89 120.376C239.594 119.699 239.035 119.176 238.331 118.67C237.631 118.167 236.678 117.607 235.475 116.9L235.401 116.856Z" fill="#A7A7A7"/>
<path d="M52.7803 112.47C52.4874 112.177 52.0125 112.177 51.7196 112.47C51.4267 112.763 51.4267 113.237 51.7196 113.53L52.4393 114.25L47.8381 114.25C46.1319 114.25 45.0906 114.25 44.2231 114.531C42.4726 115.1 41.1002 116.473 40.5314 118.223C40.2495 119.091 40.2497 120.132 40.25 121.838V122.162C40.2497 123.868 40.2495 124.909 40.5314 125.777C40.6594 126.171 41.0825 126.386 41.4765 126.258C41.8704 126.13 42.086 125.707 41.958 125.313C41.7592 124.702 41.75 123.92 41.75 122C41.75 120.08 41.7592 119.298 41.958 118.687C42.3784 117.393 43.3928 116.378 44.6866 115.958C45.2984 115.759 46.0803 115.75 48 115.75H52.1784L51.5198 116.299C51.2016 116.564 51.1586 117.037 51.4238 117.355C51.689 117.673 52.1619 117.716 52.4801 117.451L53.8889 116.277C54.2731 115.957 54.4839 115.508 54.5146 115.05C54.547 114.568 54.3796 114.069 54.006 113.695L52.7803 112.47Z" fill="#6D6D6D"/>
<path d="M57.4685 118.223C57.3405 117.829 56.9174 117.614 56.5235 117.742C56.1296 117.87 55.914 118.293 56.042 118.687C56.2407 119.298 56.25 120.08 56.25 122C56.25 123.92 56.2407 124.702 56.042 125.313C55.6216 126.607 54.6072 127.622 53.3133 128.042C52.7016 128.241 51.9196 128.25 50 128.25H48C47.0327 128.25 46.3544 128.248 45.8407 128.22L46.5303 127.53C46.8232 127.237 46.8232 126.763 46.5303 126.47C46.2374 126.177 45.7625 126.177 45.4696 126.47L44.2439 127.695C43.9757 127.964 43.8126 128.298 43.755 128.645C43.6577 129.232 43.8623 129.862 44.3611 130.277L45.7698 131.451C46.088 131.716 46.561 131.673 46.8261 131.355C47.0913 131.037 47.0483 130.564 46.7301 130.299L46.0488 129.731C46.5581 129.75 47.1454 129.75 47.8442 129.75H50.1618C51.8681 129.75 52.9093 129.75 53.7768 129.469C55.5273 128.9 56.8998 127.527 57.4685 125.777C57.7504 124.909 57.7503 123.868 57.75 122.162V121.838C57.7503 120.132 57.7504 119.091 57.4685 118.223Z" fill="#6D6D6D"/>
<path d="M294.78 113.47C294.487 113.177 294.013 113.177 293.72 113.47C293.427 113.763 293.427 114.237 293.72 114.53L294.444 115.255C292.61 115.329 290.915 116.275 289.892 117.81L284.86 125.357C284.072 126.54 282.745 127.25 281.324 127.25H281C280.586 127.25 280.25 127.586 280.25 128C280.25 128.414 280.586 128.75 281 128.75H281.324C283.247 128.75 285.042 127.789 286.108 126.19L291.14 118.643C291.827 117.611 292.925 116.939 294.137 116.784L293.52 117.299C293.202 117.564 293.159 118.037 293.424 118.355C293.689 118.673 294.162 118.716 294.48 118.451L295.889 117.277C296.273 116.957 296.484 116.508 296.515 116.05C296.547 115.568 296.38 115.069 296.006 114.695L294.78 113.47Z" fill="#6D6D6D"/>
<path d="M281 115.25C280.586 115.25 280.25 115.586 280.25 116C280.25 116.414 280.586 116.75 281 116.75H281.324C282.745 116.75 284.072 117.46 284.86 118.643C285.09 118.987 285.556 119.08 285.9 118.851C286.245 118.621 286.338 118.155 286.108 117.81C285.042 116.211 283.247 115.25 281.324 115.25H281Z" fill="#6D6D6D"/>
<path d="M291.14 125.357C290.91 125.013 290.444 124.92 290.1 125.149C289.755 125.379 289.662 125.845 289.892 126.19C290.87 127.657 292.461 128.587 294.202 128.73L293.52 129.299C293.202 129.564 293.159 130.037 293.424 130.355C293.689 130.673 294.162 130.716 294.48 130.451L295.889 129.277C296.273 128.957 296.484 128.508 296.515 128.05C296.547 127.568 296.38 127.069 296.006 126.695L294.78 125.47C294.487 125.177 294.013 125.177 293.72 125.47C293.427 125.763 293.427 126.237 293.72 126.53L294.432 127.243C293.104 127.167 291.883 126.472 291.14 125.357Z" fill="#6D6D6D"/>
<path d="M175.27 207.765C175.647 208.145 176.26 208.148 176.64 207.771C177.02 207.395 177.023 206.781 176.646 206.401L174.349 204.083C173.483 203.21 172.776 202.496 172.146 201.99C171.491 201.464 170.826 201.083 170.027 200.981C169.677 200.937 169.323 200.937 168.973 200.981C168.174 201.083 167.509 201.464 166.854 201.99C166.224 202.496 165.517 203.21 164.651 204.083L162.354 206.401C161.977 206.781 161.98 207.395 162.36 207.771C162.74 208.148 163.353 208.145 163.73 207.765L165.987 205.488C166.903 204.564 167.533 203.93 168.067 203.501C168.586 203.084 168.919 202.941 169.218 202.903C169.405 202.879 169.595 202.879 169.782 202.903C170.081 202.941 170.414 203.084 170.933 203.501C171.467 203.93 172.097 204.564 173.013 205.488L175.27 207.765Z" fill="#8C8989"/>
<path d="M154.926 225.766H153.134V236H159.21V234.348H154.926V225.766ZM159.253 239.206C159.631 239.304 160.051 239.36 160.527 239.36C161.661 239.36 162.389 238.828 162.907 237.54L166.295 229.084H164.531L162.655 234.124L160.877 229.084H159.071L161.857 236.294L161.661 236.812C161.367 237.624 160.947 237.778 160.275 237.778H159.253V239.206ZM171.605 229.056C171.325 228.986 171.087 228.958 170.849 228.958C169.925 228.958 169.267 229.42 168.973 230.106L168.875 229.098H167.265V236H168.973V232.64C168.973 231.296 169.743 230.638 170.975 230.638H171.605V229.056ZM173.615 227.698C174.175 227.698 174.637 227.236 174.637 226.662C174.637 226.088 174.175 225.64 173.615 225.64C173.027 225.64 172.565 226.088 172.565 226.662C172.565 227.236 173.027 227.698 173.615 227.698ZM172.761 236H174.469V229.084H172.761V236ZM175.828 232.528C175.828 234.726 177.2 236.182 179.3 236.182C181.106 236.182 182.45 235.076 182.66 233.466H180.938C180.756 234.222 180.154 234.642 179.3 234.642C178.208 234.642 177.536 233.83 177.536 232.528C177.536 231.226 178.264 230.4 179.356 230.4C180.168 230.4 180.742 230.806 180.938 231.59H182.646C182.464 229.924 181.176 228.874 179.286 228.874C177.242 228.874 175.828 230.386 175.828 232.528ZM183.399 233.9C183.399 235.258 184.491 236.182 186.213 236.182C187.921 236.182 189.111 235.314 189.111 233.914C189.111 232.85 188.523 232.318 187.361 232.052L186.115 231.758C185.527 231.618 185.219 231.366 185.219 230.974C185.219 230.456 185.611 230.148 186.283 230.148C186.941 230.148 187.333 230.526 187.347 231.114H188.971C188.957 229.77 187.907 228.874 186.353 228.874C184.757 228.874 183.609 229.686 183.609 231.044C183.609 232.15 184.211 232.738 185.457 233.018L186.703 233.312C187.319 233.452 187.501 233.704 187.501 234.054C187.501 234.558 187.067 234.88 186.269 234.88C185.485 234.88 185.037 234.502 185.023 233.9H183.399Z" fill="#B9B9B9"/>
</svg>
